<?xml version="1.0" encoding="utf-8"?>
<!-- Generator: Adobe Illustrator 25.0.0, SVG Export Plug-In . SVG Version: 6.00 Build 0)  -->
<svg version="1.1" id="Layer_1" xmlns="http://www.w3.org/2000/svg" xmlns:xlink="http://www.w3.org/1999/xlink" x="0px" y="0px"
	 viewBox="0 0 500 500" style="enable-background:new 0 0 500 500;" xml:space="preserve">
<style type="text/css">
	.st0{fill:#EBEBEB;}
	.st1{fill:#A6D453;}
	.st2{fill:#DBDBDB;}
	.st3{fill:#C7C7C7;}
	.st4{fill:#455A64;}
	.st5{fill:#FFFFFF;}
	.st6{fill:#A6A6A6;}
	.st7{fill:#37474F;}
	.st8{fill:#F7A9A0;}
	.st9{fill:#375A64;}
	.st10{fill:#1A2E35;}
	.st11{fill:#E1E1E1;}
	.st12{fill:#ECECEC;}
	.st13{fill:#FF735D;}
	.st14{opacity:0.5;}
	.st15{fill:#FAFAFA;}
	.st16{opacity:0.4;}
	.st17{fill:none;stroke:#44555B;stroke-width:5.000000e-02;stroke-miterlimit:10;}
	.st18{opacity:0.6;}
	.st19{fill:#FFBF9D;}
	.st20{fill:#FF9A6C;}
</style>
<path class="st0" d="M0,0"/>
<g>
	<path class="st1" d="M0,0"/>
	<path class="st1" d="M0,0"/>
	<path class="st1" d="M0,0"/>
	<path class="st1" d="M0,0"/>
</g>
<path class="st1" d="M0,0"/>
<path class="st1" d="M0,0"/>
<path class="st2" d="M0,0"/>
<path class="st2" d="M0,0"/>
<path class="st2" d="M0,0"/>
<path class="st2" d="M0,0"/>
<path class="st2" d="M0,0"/>
<path class="st2" d="M0,0"/>
<path class="st3" d="M0,0"/>
<path class="st4" d="M0,0"/>
<path class="st4" d="M0,0"/>
<path class="st5" d="M0,0"/>
<path class="st5" d="M0,0"/>
<path class="st1" d="M0,0"/>
<path class="st1" d="M0,0"/>
<path class="st1" d="M0,0"/>
<path class="st1" d="M0,0"/>
<path class="st1" d="M0,0"/>
<path class="st1" d="M0,0"/>
<path class="st4" d="M0,0"/>
<path class="st1" d="M0,0"/>
<path class="st6" d="M0,0"/>
<path class="st6" d="M0,0"/>
<path class="st1" d="M0,0"/>
<path class="st1" d="M0,0"/>
<path class="st1" d="M0,0"/>
<path class="st1" d="M0,0"/>
<path class="st7" d="M0,0"/>
<path class="st7" d="M0,0"/>
<path class="st7" d="M0,0"/>
<path class="st1" d="M0,0"/>
<path class="st1" d="M0,0"/>
<path class="st1" d="M0,0"/>
<path class="st1" d="M0,0"/>
<path class="st1" d="M0,0"/>
<path class="st1" d="M0,0"/>
<path class="st1" d="M0,0"/>
<path class="st1" d="M0,0"/>
<path class="st1" d="M0,0"/>
<path class="st1" d="M0,0"/>
<path class="st1" d="M0,0"/>
<path class="st8" d="M0,0"/>
<path class="st8" d="M0,0"/>
<path class="st8" d="M0,0"/>
<path class="st8" d="M0,0"/>
<path class="st1" d="M0,0"/>
<path class="st8" d="M0,0"/>
<path class="st8" d="M0,0"/>
<path d="M0,0"/>
<path class="st7" d="M0,0"/>
<path class="st7" d="M0,0"/>
<path class="st1" d="M0,0"/>
<path class="st1" d="M0,0"/>
<path class="st1" d="M0,0"/>
<path class="st1" d="M0,0"/>
<path class="st1" d="M0,0"/>
<path class="st1" d="M0,0"/>
<path class="st1" d="M0,0"/>
<path class="st1" d="M0,0"/>
<g>
	<g>
		<g>
			<g>
				<g>
					<g>
						<g>
							<g>
								<g>
									<g>
										<g>
											<g>
												<g>
													<g>
														<g>
															<path class="st9" d="M97.1,299.5l0.1-213.5c0-6.6,5.4-12,12-11.9L426,74.3c6.6,0,12,5.4,11.9,12l-0.1,213.5
																c0,6.6-5.4,12-12,11.9L109,311.5C102.4,311.5,97.1,306.2,97.1,299.5z"/>
														</g>
													</g>
												</g>
											</g>
										</g>
									</g>
								</g>
								<g>
									<g>
										<g>
											<g>
												<g>
													<g>
														<g>
															
																<rect x="160.8" y="50.2" transform="matrix(-5.273594e-04 1 -1 -5.273594e-04 464.631 -79.4863)" class="st5" width="222.4" height="284.5"/>
														</g>
													</g>
												</g>
											</g>
										</g>
									</g>
								</g>
								<g>
									<g>
										<g>
											<g>
												<g>
													<g>
														<g>
															<path class="st10" d="M114.3,201.9c-5,0-9.1-4.1-9.1-9.1c0-5,4.1-9.1,9.1-9.1c5,0,9.1,4.1,9.1,9.1
																C123.4,197.8,119.3,201.9,114.3,201.9z"/>
														</g>
													</g>
												</g>
											</g>
										</g>
									</g>
								</g>
								<g>
									<g>
										<g>
											<g>
												<g>
													<g>
														<g>
															<path class="st10" d="M424.2,227.5l0-69.1c0-0.7,0.5-1.2,1.2-1.2l1.3,0c0.7,0,1.2,0.5,1.2,1.2l0,69.1
																c0,0.7-0.5,1.2-1.2,1.2l-1.3,0C424.8,228.7,424.2,228.2,424.2,227.5z"/>
														</g>
													</g>
												</g>
											</g>
										</g>
									</g>
								</g>
							</g>
						</g>
					</g>
				</g>
			</g>
		</g>
	</g>
	<g>
		<g>
			<g>
				<path class="st11" d="M406.1,260.5H138.5V100.4c0-7,5.6-12.6,12.6-12.6h242.4c7,0,12.6,5.6,12.6,12.6V260.5z"/>
			</g>
		</g>
	</g>
	<g>
		<g>
			<g>
				<path class="st12" d="M385.6,273.1c0,3.2-51.6,5.7-115.1,5.7c-63.6,0-115.1-2.6-115.1-5.7c0-3.2,51.6-5.7,115.1-5.7
					C334.1,267.4,385.6,270,385.6,273.1z"/>
			</g>
		</g>
	</g>
	<g>
		<g>
			<g>
				<g>
					<rect x="157" y="162" class="st13" width="34.3" height="17"/>
				</g>
			</g>
		</g>
		<g>
			<g>
				<g>
					<path class="st5" d="M169,167.7v6.3h-1l-3.5-4.3v4.3h-1.2v-6.3h1l3.5,4.3v-4.3H169z"/>
				</g>
			</g>
			<g>
				<g>
					<path class="st5" d="M175.4,173v1h-4.8v-6.3h4.6v1h-3.4v1.6h3.1v1h-3.1v1.7H175.4z"/>
				</g>
			</g>
			<g>
				<g>
					<path class="st5" d="M185.9,167.7l-2.1,6.3h-1.2l-1.6-4.7l-1.6,4.7h-1.3l-2.1-6.3h1.2l1.6,4.8l1.6-4.8h1.1l1.6,4.8l1.6-4.8
						H185.9z"/>
				</g>
			</g>
		</g>
	</g>
	<g>
		<g>
			<g>
				<g>
					<path class="st11" d="M352.9,250.9c0,0.1-42.2,0.3-94.3,0.3c-52.1,0-94.3-0.1-94.3-0.3c0-0.1,42.2-0.3,94.3-0.3
						C310.7,250.7,352.9,250.8,352.9,250.9z"/>
				</g>
			</g>
		</g>
	</g>
	<g>
		<g>
			<g>
				<g>
					<g>
						<g>
							<g>
								<g>
									<rect x="159.5" y="218.1" class="st13" width="222.5" height="32.6"/>
								</g>
							</g>
						</g>
					</g>
				</g>
				<g class="st14">
					<g>
						<g>
							<g>
								<g>
									<rect x="159.5" y="218.1" width="222.5" height="32.6"/>
								</g>
							</g>
						</g>
					</g>
				</g>
			</g>
			<g>
				<g>
					<g>
						<g>
							<g>
								<g>
									<g>
										<g>
											<g>
												<g>
													<path class="st10" d="M167.9,250.2c-0.2,11.8,9.3,21.6,21.1,21.8c11.8,0.2,21.6-9.3,21.8-21.1
														c0.2-11.8-9.3-21.6-21.1-21.8C177.8,228.9,168.1,238.4,167.9,250.2z"/>
												</g>
											</g>
										</g>
									</g>
								</g>
							</g>
						</g>
					</g>
				</g>
				<g>
					<g>
						<g>
							<g>
								<g>
									<g>
										<g>
											<g>
												<g>
													<path class="st10" d="M167.9,250.2C167.9,250.2,167.9,250.2,167.9,250.2c-0.2,11.9,9.3,21.6,21.1,21.8
														c11.8,0.2,21.6-9.3,21.8-21.1c0,0,0,0,0-0.1L167.9,250.2z"/>
												</g>
											</g>
										</g>
									</g>
								</g>
							</g>
						</g>
					</g>
				</g>
				<g>
					<g>
						<g>
							<g>
								<g>
									<g>
										<g>
											<g>
												<g>
													<path class="st15" d="M174.3,250.3c-0.1,8.3,6.5,15.2,14.8,15.3c8.3,0.1,15.2-6.5,15.3-14.8
														c0.1-8.3-6.5-15.2-14.8-15.3C181.3,235.4,174.4,242,174.3,250.3z"/>
												</g>
											</g>
										</g>
									</g>
								</g>
							</g>
						</g>
					</g>
				</g>
				<g>
					<g>
						<g>
							<g>
								<g>
									<g>
										<g>
											<g>
												<g>
													<path class="st11" d="M189.6,235.5c-8.3-0.1-15.2,6.5-15.3,14.8l30.1,0.4C204.6,242.5,197.9,235.6,189.6,235.5z"/>
												</g>
											</g>
										</g>
									</g>
								</g>
							</g>
						</g>
					</g>
				</g>
				<g>
					<g>
						<g>
							<g>
								<g>
									<g>
										<g>
											<g>
												<g>
													<path class="st10" d="M180.2,250.4c-0.1,5.1,4,9.2,9,9.3c5.1,0.1,9.2-4,9.3-9c0.1-5.1-4-9.2-9-9.3
														C184.4,241.3,180.3,245.4,180.2,250.4z"/>
												</g>
											</g>
										</g>
									</g>
								</g>
							</g>
						</g>
					</g>
				</g>
			</g>
			<g>
				<g>
					<g>
						<g>
							<g>
								<g>
									<g>
										<g>
											<g>
												<g>
													<path class="st10" d="M332,250.2c-0.2,11.8,9.3,21.6,21.1,21.8c11.8,0.2,21.6-9.3,21.8-21.1s-9.3-21.6-21.1-21.8
														C341.9,228.9,332.2,238.4,332,250.2z"/>
												</g>
											</g>
										</g>
									</g>
								</g>
							</g>
						</g>
					</g>
				</g>
				<g>
					<g>
						<g>
							<g>
								<g>
									<g>
										<g>
											<g>
												<g>
													<path class="st10" d="M332,250.2C332,250.2,332,250.2,332,250.2c-0.2,11.9,9.3,21.6,21.1,21.8
														c11.8,0.2,21.6-9.3,21.8-21.1c0,0,0,0,0-0.1L332,250.2z"/>
												</g>
											</g>
										</g>
									</g>
								</g>
							</g>
						</g>
					</g>
				</g>
				<g>
					<g>
						<g>
							<g>
								<g>
									<g>
										<g>
											<g>
												<g>
													<path class="st15" d="M338.4,250.3c-0.1,8.3,6.5,15.2,14.8,15.3c8.3,0.1,15.2-6.5,15.3-14.8
														c0.1-8.3-6.5-15.2-14.8-15.3C345.3,235.4,338.5,242,338.4,250.3z"/>
												</g>
											</g>
										</g>
									</g>
								</g>
							</g>
						</g>
					</g>
				</g>
				<g>
					<g>
						<g>
							<g>
								<g>
									<g>
										<g>
											<g>
												<g>
													<path class="st11" d="M353.6,235.5c-8.3-0.1-15.2,6.5-15.3,14.8l30.1,0.4C368.6,242.5,362,235.6,353.6,235.5z"/>
												</g>
											</g>
										</g>
									</g>
								</g>
							</g>
						</g>
					</g>
				</g>
				<g>
					<g>
						<g>
							<g>
								<g>
									<g>
										<g>
											<g>
												<g>
													<path class="st10" d="M344.3,250.4c-0.1,5.1,4,9.2,9,9.3c5.1,0.1,9.2-4,9.3-9c0.1-5.1-4-9.2-9-9.3
														C348.5,241.3,344.3,245.4,344.3,250.4z"/>
												</g>
											</g>
										</g>
									</g>
								</g>
							</g>
						</g>
					</g>
				</g>
			</g>
			<g>
				<g>
					<g>
						<g>
							<g>
								<path class="st13" d="M217.5,199.8c0,0-31.6,2.3-43.3,5c-8.3,1.9-24.2,5-24,15.1l1.3,7.2c0,0-5.9,2.7-5.9,9.6
									c0,6.9-1.4,17.6,12.3,18c2.3,0.1,6.6,0,6.6,0s-2.6-29.3,24.3-30.2c27.4-0.9,25.6,29.9,25.6,29.9h114.5c0,0-4.7-30,24.8-30.1
									c29.5,0,25,30.3,25,30.3s10.9,0.9,15.9-8.2s3.7-15.6,3.7-15.6l-0.2-5.8c-0.1-2-1.6-3.5-3.6-3.6l0,0c0,0,2-14.5-1.1-17
									c-3-2.5-19.6-17.7-19.6-17.7l0.8-0.5c1.3-0.8,1.1-2.8-0.4-3.3c-6.3-2.2-18.8-6.5-21.7-7.5c-0.4-0.2-0.9-0.2-1.4-0.3
									c-1.7-0.1-6.7-0.4-15.8-0.5c-11.1-0.1-55,0-55,0s-15.1,1.2-23.5,5C248.2,183.2,217.5,199.8,217.5,199.8z"/>
							</g>
						</g>
					</g>
				</g>
			</g>
			<g class="st16">
				<g>
					<g>
						<g>
							<g>
								<g>
									<path d="M153.6,235.7c-1.1-0.2-2.9-0.3-3.8,0.5c-0.6,0.6-0.8,1.5-0.9,2.4c-0.1,1.2-0.2,2.4,0.1,3.6c0.3,1.2,1,2.3,2,2.8
										c1,0.6,2.5,0.5,3.3-0.4c0.7-0.8,0.8-2,0.8-3.1c0-1.5,0.1-2.9-0.2-4.4c-0.1-0.3-0.2-0.7-0.4-0.9
										C154.2,235.9,154,235.8,153.6,235.7"/>
								</g>
							</g>
						</g>
					</g>
				</g>
			</g>
			<g>
				<g>
					<g>
						<g>
							<g>
								<path class="st15" d="M151.5,226.9c3.4,0,6.6-0.2,10-0.4c0.4,0,0.8-0.1,1-0.3c0.3-0.3,0.3-0.8,0.3-1.2c0-1.8-0.1-3.8-1.4-5
									c-0.8-0.7-2-0.9-3.1-1c-2.7-0.3-5.5,0-8.1,0.8L151.5,226.9z"/>
							</g>
						</g>
					</g>
				</g>
			</g>
			<g>
				<g>
					<g>
						<g>
							<g>
								<g>
									<path class="st5" d="M221.1,253.3c0,0,0-0.1,0-0.3c0-0.2,0-0.5-0.1-0.8c0-0.7-0.1-1.8-0.2-3.2c-0.1-1.4-0.2-3.1-0.4-5.1
										c-0.2-2-0.5-4.2-1.2-6.7c-0.7-2.4-1.7-5-3.2-7.5c-1.5-2.5-3.5-5-6.2-7c-5.4-3.8-12.7-6-20.4-6.1
										c-7.7-0.1-14.9,2.3-20.2,6.4c-2.7,2-4.9,4.3-6.6,6.7c-1.7,2.4-3,4.9-3.8,7.2c-0.9,2.4-1.4,4.6-1.6,6.6
										c-0.3,2-0.2,3.7-0.2,5.1c0.1,1.4,0.2,2.5,0.4,3.2c0.1,0.4,0.1,0.6,0.2,0.8c0,0.2,0,0.3,0,0.3s0-0.1-0.1-0.3
										c0-0.2-0.1-0.5-0.2-0.8c-0.2-0.7-0.3-1.8-0.4-3.2c-0.1-1.4-0.1-3.1,0.2-5.1c0.3-2,0.7-4.2,1.6-6.6c0.9-2.4,2.1-4.9,3.8-7.3
										c1.7-2.4,3.9-4.8,6.6-6.8c5.3-4.1,12.6-6.5,20.3-6.4c7.7,0.1,15,2.3,20.5,6.2c2.7,2,4.7,4.5,6.3,7c1.5,2.5,2.6,5.1,3.2,7.6
										c0.7,2.4,1,4.7,1.2,6.7c0.2,2,0.3,3.7,0.3,5.1c0.1,1.4,0.1,2.5,0.1,3.2c0,0.4,0,0.6,0,0.8
										C221.1,253.2,221.1,253.3,221.1,253.3z"/>
								</g>
							</g>
						</g>
					</g>
				</g>
			</g>
			<g>
				<g>
					<g>
						<g>
							<g>
								<g>
									<path class="st10" d="M222.3,253.8c0,0,0-0.1,0-0.2c0-0.2,0-0.4,0-0.7c0-0.6,0-1.6-0.1-2.8c-0.1-2.4-0.2-6-0.3-10.5
										c-0.1-4.5-0.3-10-0.4-16.3c0-1.6-0.1-3.2-0.1-4.9c-0.1-0.8,0-1.7,0.1-2.5c0.1-0.4,0.1-0.9,0.2-1.3c0.1-0.4,0.2-0.9,0.3-1.3
										c0.4-1.7,1-3.5,1.8-5.1c0.8-1.7,1.7-3.3,2.9-4.9l0,0l0,0c6.1-3.9,12.8-8.1,19.8-12.5c1.8-1.1,3.5-2.2,5.4-3.4
										c1.8-1.2,3.7-2.2,5.7-3.2c2-0.9,4-1.7,6.2-2.5c1.1-0.4,2.1-0.7,3.2-1c1.1-0.3,2.2-0.6,3.3-0.8c4.3-0.9,8.6-1.4,12.8-1.6
										c4.2-0.2,8.3-0.2,12.4,0l0.1,0l0,0.1c-1.9,8.5-3.7,16.5-5.3,23.8l0,0l0,0c-1,1.6-1.8,3.4-2.4,5.1c-0.6,1.7-0.9,3.5-0.8,5.3
										c0.1,1.8,0.2,3.5,0.2,5.2c0,1.7,0.1,3.3,0.1,4.9c0.1,6.3,0.1,11.8,0.1,16.3c0,4.5,0,8.1,0,10.5c0,1.2,0,2.1,0,2.8
										c0,0.3,0,0.5,0,0.7c0,0.2,0,0.2,0,0.2s0-0.1,0-0.2c0-0.2,0-0.4,0-0.7c0-0.6,0-1.6,0-2.8c0-2.4,0-6-0.1-10.5
										c0-4.5-0.1-10-0.2-16.3c0-1.6-0.1-3.2-0.1-4.9c0-1.7-0.1-3.4-0.2-5.1c-0.1-1.8,0.2-3.6,0.8-5.4c0.6-1.8,1.4-3.5,2.4-5.2
										l0,0c1.6-7.3,3.4-15.3,5.3-23.8l0.1,0.1c-4-0.2-8.1-0.2-12.3,0c-4.2,0.2-8.5,0.7-12.7,1.6c-1.1,0.2-2.2,0.5-3.3,0.8
										c-1.1,0.3-2.2,0.6-3.2,1c-2.1,0.7-4.2,1.5-6.1,2.4c-2,0.9-3.9,2-5.6,3.1c-1.8,1.1-3.6,2.3-5.4,3.4
										c-7,4.4-13.7,8.6-19.8,12.5l0,0c-1.2,1.5-2.1,3.2-2.9,4.8c-0.8,1.7-1.4,3.4-1.8,5.1c-0.9,3.4-0.4,6.8-0.4,10
										c0.2,6.3,0.3,11.8,0.4,16.3c0.1,4.5,0.2,8.1,0.2,10.5c0,1.2,0,2.1,0.1,2.8c0,0.3,0,0.5,0,0.7
										C222.3,253.7,222.3,253.8,222.3,253.8z"/>
								</g>
							</g>
						</g>
					</g>
				</g>
			</g>
			<g>
				<g>
					<g>
						<g>
							<g>
								<g>
									<path class="st10" d="M295.1,179c0,0,0.1,0,0.2,0c0.1,0,0.3,0,0.6,0c0.5,0,1.2,0,2.1-0.1c1.9,0,4.6-0.1,7.9-0.2
										c6.7-0.1,16.1-0.3,26.6-0.5l0.1,0l0,0c1.2,1.5,2.5,3,3.7,4.6c3.8,4.6,7.4,9,10.7,13.1c0.4,0.5,0.8,1,1.2,1.5
										c0.4,0.5,0.7,1,1,1.6c0.5,1.1,0.8,2.3,0.8,3.5c0,1.2-0.2,2.3-0.6,3.3c-0.4,1-0.8,1.9-1.2,2.8c-1.6,3.6-2.8,6.5-3.7,8.5
										c-0.4,1-0.8,1.8-1,2.3c-0.1,0.3-0.2,0.5-0.3,0.6c-0.1,0.1-0.1,0.2-0.1,0.2s0-0.1,0.1-0.2c0.1-0.1,0.1-0.3,0.2-0.6
										c0.2-0.5,0.6-1.3,1-2.3c0.9-2,2.1-4.9,3.6-8.5c0.7-1.8,1.9-3.7,1.8-6c0-1.1-0.3-2.3-0.8-3.4c-0.3-0.5-0.6-1.1-1-1.6
										c-0.4-0.5-0.8-1-1.2-1.5c-3.3-4-6.9-8.4-10.7-13c-1.3-1.6-2.5-3.1-3.7-4.6l0.1,0c-10.6,0.2-19.9,0.3-26.6,0.4
										c-3.3,0-6,0.1-7.9,0.1c-0.9,0-1.6,0-2.1,0c-0.2,0-0.4,0-0.6,0C295.2,179,295.1,179,295.1,179z"/>
								</g>
							</g>
						</g>
					</g>
				</g>
			</g>
			<g>
				<g>
					<g>
						<g>
							<g>
								<g>
									<path class="st10" d="M281.7,214.4c0,0,0.1,0,0.3,0c0.2,0,0.5-0.1,0.8-0.3c0.3-0.2,0.7-0.6,0.9-1.1
										c0.1-0.3,0.1-0.6,0.1-0.9c0-0.3-0.1-0.6-0.2-1c-0.3-0.6-1-1.1-1.8-1.1c-0.8,0-1.8,0-2.7,0c-1.9,0-4,0-6.2,0
										c-0.5,0-1,0.2-1.4,0.6c-0.4,0.3-0.6,0.8-0.7,1.3c-0.1,0.5,0,1,0.3,1.4c0.2,0.4,0.6,0.7,1,0.9c0.4,0.2,0.9,0.2,1.3,0.2
										c0.5,0,0.9,0,1.3,0c0.8,0,1.6,0,2.4,0c1.4,0,2.6,0,3.4,0c0.4,0,0.7,0,0.9,0C281.6,214.4,281.7,214.4,281.7,214.4
										s-0.1,0-0.3,0c-0.2,0-0.5,0-0.9,0c-0.8,0-2,0-3.4,0c-0.7,0-1.5,0-2.4,0c-0.4,0-0.9,0-1.3,0c-0.2,0-0.4,0-0.7,0
										c-0.2,0-0.5-0.1-0.7-0.2c-0.5-0.2-0.9-0.5-1.1-1c-0.3-0.5-0.3-1-0.3-1.5c0.1-0.5,0.3-1.1,0.7-1.4c0.4-0.4,1-0.6,1.6-0.6
										c2.2,0,4.3,0,6.2,0c1,0,1.9,0,2.7,0c0.9,0,1.6,0.6,2,1.2c0.2,0.3,0.2,0.7,0.3,1c0,0.3,0,0.6-0.1,0.9
										c-0.2,0.6-0.6,0.9-0.9,1.1c-0.4,0.2-0.7,0.3-0.9,0.3C281.8,214.5,281.7,214.4,281.7,214.4z"/>
								</g>
							</g>
						</g>
					</g>
				</g>
			</g>
			<g>
				<g>
					<g>
						<g>
							<g>
								<g>
									<path class="st10" d="M341,214.4c0,0,0.1,0,0.3,0c0.2,0,0.5-0.1,0.8-0.3c0.3-0.2,0.7-0.6,0.9-1.1c0.1-0.3,0.1-0.6,0.1-0.9
										c0-0.3-0.1-0.6-0.2-1c-0.3-0.6-1-1.1-1.8-1.1c-0.8,0-1.8,0-2.7,0c-1.9,0-4,0-6.2,0c-0.5,0-1,0.2-1.4,0.6
										c-0.4,0.3-0.6,0.8-0.7,1.3c-0.1,0.5,0,1,0.3,1.4c0.2,0.4,0.6,0.7,1,0.9c0.4,0.2,0.9,0.2,1.3,0.2c0.5,0,0.9,0,1.3,0
										c0.8,0,1.6,0,2.4,0c1.4,0,2.6,0,3.4,0c0.4,0,0.7,0,0.9,0C340.9,214.4,341,214.4,341,214.4s-0.1,0-0.3,0c-0.2,0-0.5,0-0.9,0
										c-0.8,0-2,0-3.4,0c-0.7,0-1.5,0-2.4,0c-0.4,0-0.9,0-1.3,0c-0.2,0-0.4,0-0.7,0c-0.2,0-0.5-0.1-0.7-0.2
										c-0.5-0.2-0.9-0.5-1.1-1c-0.3-0.5-0.3-1-0.3-1.5c0.1-0.5,0.3-1.1,0.7-1.4c0.4-0.4,1-0.6,1.6-0.6c2.2,0,4.3,0,6.2,0
										c1,0,1.9,0,2.7,0c0.9,0,1.6,0.6,2,1.2c0.2,0.3,0.2,0.7,0.3,1c0,0.3,0,0.6-0.1,0.9c-0.2,0.6-0.6,0.9-0.9,1.1
										c-0.4,0.2-0.7,0.3-0.9,0.3C341.1,214.5,341,214.4,341,214.4z"/>
								</g>
							</g>
						</g>
					</g>
				</g>
			</g>
			<g>
				<g>
					<g>
						<g>
							<g>
								<path class="st15" d="M393.1,204.8h-11.9c-1.6,0-3.1,0.9-3.9,2.3v0c-0.6,1.2-0.7,2.6-0.1,3.8l4.7,10.6l11.9-0.1
									C393.7,221.4,396.2,208,393.1,204.8z"/>
							</g>
						</g>
					</g>
				</g>
			</g>
			<g>
				<g>
					<g>
						<g>
							<g>
								<path class="st10" d="M228.2,203.3l61.3-1.1l39.9-0.7l13.1-7.6c1.1-0.6,1.3-2,0.6-3l-8.2-10.8c-0.9-1.1-2.2-1.8-3.6-1.8
									l-44.6-0.4c0,0-16.8-1-30,6.4C242.8,192.1,228.2,203.3,228.2,203.3z"/>
							</g>
						</g>
					</g>
				</g>
			</g>
			<g>
				<g>
					<g>
						<g>
							<g>
								<path class="st9" d="M256.7,179.4c0,0,2.6,1,0.6,2.3c-2,1.3-33,20.9-33,20.9l-6.8-2.8C230.1,192.7,243,185.9,256.7,179.4z"
									/>
							</g>
						</g>
					</g>
				</g>
			</g>
			<g>
				<g>
					<g>
						<g>
							<g>
								<g>
									<path class="st10" d="M225.3,203.1c0,0-0.1,0-0.2,0c-0.1,0-0.3,0.1-0.6,0.1c-0.5,0.1-1.2,0.3-2.2,0.5
										c-1.9,0.4-4.6,0.9-8,1.5c-6.8,1.2-16.2,2.5-26.7,3.4c-2.6,0.2-5.2,0.4-7.7,0.6c-2.5,0.2-4.9,0.3-7.1,0.5
										c-4.5,0.4-8.6,1.1-11.9,2c-3.3,1-5.8,2.2-7.5,3.1c-0.9,0.5-1.5,0.9-1.9,1.2c-0.2,0.1-0.4,0.2-0.5,0.3
										c-0.1,0.1-0.2,0.1-0.2,0.1s0.1,0,0.2-0.1c0.1-0.1,0.3-0.2,0.5-0.3c0.4-0.3,1-0.7,1.9-1.2c1.7-1,4.2-2.2,7.5-3.2
										c3.3-1,7.4-1.7,11.9-2.1c2.3-0.2,4.7-0.4,7.1-0.5c2.5-0.2,5-0.4,7.7-0.6c10.5-0.9,19.9-2.2,26.7-3.4c3.4-0.6,6.1-1.1,8-1.4
										c0.9-0.2,1.7-0.3,2.2-0.4c0.2,0,0.4-0.1,0.6-0.1C225.2,203.1,225.3,203.1,225.3,203.1z"/>
								</g>
							</g>
						</g>
					</g>
				</g>
			</g>
			<g>
				<g>
					<g>
						<g>
							<g>
								<g>
									<path class="st10" d="M397.8,230.5c0,0.1-4.1,0.1-9.1,0.1c-5,0-9.1,0-9.1-0.1c0-0.1,4.1-0.1,9.1-0.1
										C393.7,230.4,397.8,230.4,397.8,230.5z"/>
								</g>
							</g>
						</g>
					</g>
				</g>
			</g>
			<g>
				<g>
					<g>
						<g>
							<g>
								<g>
									<path class="st10" d="M323.1,240.9c0,0.1-23,0.1-51.5,0.1c-28.4,0-51.5,0-51.5-0.1c0-0.1,23-0.1,51.5-0.1
										C300.1,240.8,323.1,240.8,323.1,240.9z"/>
								</g>
							</g>
						</g>
					</g>
				</g>
			</g>
			<g>
				<g>
					<g>
						<g>
							<g>
								<g>
									<path class="st10" d="M161.8,230.8c0,0.1-3.3,0.1-7.3,0.1c-4,0-7.3,0-7.3-0.1c0-0.1,3.3-0.1,7.3-0.1
										C158.5,230.7,161.8,230.8,161.8,230.8z"/>
								</g>
							</g>
						</g>
					</g>
				</g>
			</g>
			<g>
				<g>
					<g>
						<g>
							<g>
								<path class="st9" d="M373.6,186.1c0,0-2.7,3.1-1.7,5.3c1.1,2.2,12.2,10.1,12.2,10.1l8.1,1.5L373.6,186.1z"/>
							</g>
						</g>
					</g>
				</g>
			</g>
			<g>
				<g>
					<g>
						<g>
							<g>
								<polygon class="st9" points="297,180.6 295.1,200.2 327.6,199.3 340.7,191.7 332.2,180.6 								"/>
							</g>
						</g>
					</g>
				</g>
			</g>
			<g>
				<g>
					<g>
						<g>
							<g>
								<path class="st9" d="M235.9,201.2c0,0,19.6-14.1,27.3-16.9c7.5-2.7,11.3-3.4,18.3-3.6c6.7-0.2,10.8,0,10.8,0l-5.2,19.9
									L235.9,201.2z"/>
							</g>
						</g>
					</g>
				</g>
			</g>
			<g>
				<g>
					<g>
						<g>
							<g>
								<g>
									<path class="st13" d="M233,201.2L233,201.2c0-1.2,0.7-2.4,1.8-3l4.5-2.5c1.3-0.7,2.7-1.1,4.2-1.1l0,0
										c0.9,0,1.8,0.1,2.7,0.4c1.9,0.6,3.2,2.5,3.3,4.5l0,0c0.1,2.8-2.1,5.1-5,5.1h-8C234.5,204.7,233,203.1,233,201.2z"/>
								</g>
							</g>
						</g>
					</g>
				</g>
				<g>
					<g>
						<g>
							<g>
								<g>
									<g>
										<path class="st10" d="M233,201.2c0,0,0,0.2,0.1,0.4c0,0.3,0.1,0.7,0.4,1.2c0.3,0.5,0.7,1,1.4,1.4c0.3,0.2,0.7,0.3,1.2,0.4
											c0.4,0.1,0.9,0,1.4,0c2,0,4.3,0,6.9,0c0.6,0,1.3-0.1,1.9-0.3c0.6-0.2,1.2-0.6,1.7-1.1c0.5-0.5,0.9-1.1,1.1-1.7
											c0.3-0.7,0.4-1.4,0.3-2.1c-0.1-1.5-0.9-2.8-2-3.6c-0.6-0.4-1.2-0.6-1.9-0.8c-0.7-0.2-1.3-0.2-1.9-0.2
											c-1.3,0-2.5,0.3-3.5,0.8c-0.5,0.2-1,0.5-1.5,0.8c-0.5,0.3-0.9,0.5-1.3,0.7c-0.9,0.5-1.6,0.9-2.3,1.3
											c-0.7,0.4-1.1,0.9-1.4,1.4c-0.3,0.5-0.4,0.9-0.4,1.2C233,201.1,233,201.3,233,201.2c0,0,0-0.2,0-0.4
											c0-0.3,0.1-0.7,0.4-1.2c0.3-0.5,0.7-1,1.4-1.4c0.7-0.4,1.4-0.8,2.3-1.3c0.4-0.2,0.9-0.5,1.3-0.8c0.5-0.3,0.9-0.6,1.5-0.8
											c1.1-0.5,2.3-0.8,3.6-0.8c0.7,0,1.3,0.1,2,0.2c0.7,0.2,1.3,0.4,1.9,0.8c1.2,0.8,2,2.2,2.1,3.7c0.1,0.8,0,1.5-0.3,2.2
											c-0.3,0.7-0.7,1.3-1.2,1.8c-0.5,0.5-1.1,0.9-1.8,1.1c-0.6,0.2-1.3,0.3-2,0.3c-2.6,0-4.9,0-6.9,0c-0.5,0-1,0-1.4,0
											c-0.4-0.1-0.8-0.2-1.2-0.4c-0.7-0.4-1.1-0.9-1.4-1.4c-0.3-0.5-0.3-0.9-0.4-1.2C233,201.4,233,201.2,233,201.2z"/>
									</g>
								</g>
							</g>
						</g>
					</g>
				</g>
			</g>
			<g>
				<g>
					<g>
						<g>
							<g>
								<g>
									<path class="st5" d="M383.8,253.5c0,0,0-0.1,0-0.3c0-0.2,0-0.5,0.1-0.8c0-0.4,0.1-0.8,0.1-1.3c0-0.5,0-1.1,0.1-1.8
										c0-0.7,0-1.4,0-2.3c-0.1-0.8-0.1-1.7-0.2-2.7c-0.2-1.9-0.5-4.1-1.2-6.5c-0.3-1.2-0.7-2.4-1.3-3.6c-0.5-1.2-1.2-2.4-1.9-3.6
										c-1.5-2.4-3.7-4.6-6.3-6.5c-2.6-1.9-5.6-3.4-9-4.4c-3.3-1-7-1.4-10.7-1.4c-3.7,0-7.3,0.5-10.7,1.6c-1.7,0.5-3.3,1.2-4.7,2
										c-1.5,0.8-2.9,1.7-4.1,2.7c-2.5,2-4.7,4.2-6.4,6.5c-0.8,1.2-1.5,2.4-2.1,3.5c-0.6,1.2-1.1,2.4-1.5,3.5
										c-1.6,4.6-2.1,8.5-2.3,11.3c-0.1,1.4-0.1,2.4,0,3.1c0,0.4,0,0.6,0,0.8c0,0.2,0,0.3,0,0.3s0-0.1,0-0.3c0-0.2,0-0.5-0.1-0.8
										c0-0.7-0.1-1.8,0-3.1c0.2-2.7,0.6-6.7,2.3-11.3c0.4-1.2,0.9-2.3,1.5-3.5c0.6-1.2,1.3-2.4,2.1-3.6c1.7-2.3,3.8-4.6,6.4-6.6
										c1.3-1,2.6-1.9,4.1-2.7c1.5-0.8,3.1-1.4,4.8-2c3.4-1.1,7-1.6,10.7-1.6c3.7,0,7.4,0.4,10.7,1.4c3.4,1,6.4,2.6,9,4.5
										c1.3,1,2.5,2,3.5,3.1c1.1,1.1,2,2.3,2.8,3.5c0.8,1.2,1.4,2.4,1.9,3.7c0.5,1.2,0.9,2.4,1.3,3.6c0.7,2.4,1,4.6,1.1,6.5
										c0.1,1,0.1,1.9,0.2,2.7c0,0.8,0,1.6,0,2.3c0,0.7-0.1,1.3-0.1,1.8c0,0.5-0.1,1-0.1,1.3c0,0.4-0.1,0.6-0.1,0.8
										C383.9,253.4,383.8,253.5,383.8,253.5z"/>
								</g>
							</g>
						</g>
					</g>
				</g>
			</g>
			<g>
				<g>
					<g>
						<g>
							<g>
								<g>
									<path class="st17" d="M199.6,217.9"/>
								</g>
							</g>
						</g>
					</g>
				</g>
			</g>
			<g>
				<g>
					<g>
						<g>
							<g>
								<g>
									<path class="st5" d="M286.3,203.3C286.3,203.3,286.2,203.3,286.3,203.3c-0.2,0-0.3,0-0.4,0c-0.3,0-0.6,0-1,0
										c-0.9,0-2.2,0-3.8,0.1c-3.2,0.1-7.7,0.2-12.7,0.3c-5,0.1-9.4,0.2-12.7,0.3c-1.6,0-2.9,0-3.8,0c-0.4,0-0.8,0-1,0
										c-0.1,0-0.2,0-0.3,0c-0.1,0-0.1,0-0.1,0s0,0,0.1,0c0.1,0,0.2,0,0.3,0c0.3,0,0.6,0,1,0c0.9,0,2.2,0,3.8-0.1
										c3.2-0.1,7.7-0.2,12.7-0.3c5-0.1,9.4-0.2,12.7-0.3c1.6,0,2.9,0,3.8,0c0.4,0,0.8,0,1,0C286,203.2,286.1,203.2,286.3,203.3
										C286.2,203.3,286.3,203.3,286.3,203.3z"/>
								</g>
							</g>
						</g>
					</g>
				</g>
			</g>
			<g>
				<g>
					<g>
						<g>
							<g>
								<g>
									<path class="st5" d="M280.9,209.3c0,0.1-1.6,0.1-3.5,0.1c-1.9,0-3.5,0-3.5-0.1s1.6-0.1,3.5-0.1
										C279.4,209.2,280.9,209.2,280.9,209.3z"/>
								</g>
							</g>
						</g>
					</g>
				</g>
			</g>
			<g>
				<g>
					<g>
						<g>
							<g>
								<g>
									<path class="st5" d="M282.2,187.8c0,0.1-4.3,1.9-9.7,4.1c-5.4,2.2-9.8,3.9-9.8,3.9c0-0.1,4.3-1.9,9.7-4.1
										C277.8,189.5,282.2,187.8,282.2,187.8z"/>
								</g>
							</g>
						</g>
					</g>
				</g>
			</g>
			<g>
				<g>
					<g>
						<g>
							<g>
								<g>
									<path class="st5" d="M273.4,189.2c0,0.1-4.1,1.9-9.3,4.1c-5.1,2.2-9.3,3.9-9.4,3.9s4.1-1.9,9.3-4.1
										C269.2,190.9,273.4,189.1,273.4,189.2z"/>
								</g>
							</g>
						</g>
					</g>
				</g>
			</g>
			<g>
				<g>
					<g>
						<g>
							<g>
								<g>
									<path class="st5" d="M329.4,187.1c0,0.1-4.3,1.9-9.7,4.1c-5.4,2.2-9.8,3.9-9.8,3.9c0-0.1,4.3-1.9,9.7-4.1
										C325,188.7,329.4,187,329.4,187.1z"/>
								</g>
							</g>
						</g>
					</g>
				</g>
			</g>
			<g>
				<g>
					<g>
						<g>
							<g>
								<g>
									<path class="st5" d="M320.6,188.4c0,0.1-4.1,1.9-9.3,4.1c-5.1,2.2-9.3,3.9-9.4,3.9c0-0.1,4.1-1.9,9.3-4.1
										C316.4,190.1,320.6,188.4,320.6,188.4z"/>
								</g>
							</g>
						</g>
					</g>
				</g>
			</g>
			<g>
				<g>
					<g>
						<g>
							<g>
								<g>
									<path class="st5" d="M330.3,203.3c0,0.1-8.7,0.2-19.4,0.2c-10.7,0.1-19.4,0.1-19.4,0c0-0.1,8.7-0.2,19.4-0.2
										C321.6,203.2,330.3,203.2,330.3,203.3z"/>
								</g>
							</g>
						</g>
					</g>
				</g>
			</g>
			<g>
				<g>
					<g>
						<g>
							<g>
								<g>
									<path class="st5" d="M339.9,209c0,0.1-2.4,0.1-5.4,0.2c-3,0-5.4,0-5.4-0.1c0-0.1,2.4-0.1,5.4-0.2
										C337.5,208.9,339.9,208.9,339.9,209z"/>
								</g>
							</g>
						</g>
					</g>
				</g>
			</g>
			<g>
				<g>
					<g>
						<g>
							<g>
								<g>
									<path class="st5" d="M173.8,206c0,0-0.1,0-0.2,0c-0.2,0-0.4,0.1-0.7,0.1c-0.3,0-0.7,0.1-1.1,0.1c-0.4,0.1-0.9,0.1-1.4,0.2
										c-1,0.2-2.3,0.5-3.6,0.8c-1.4,0.4-2.8,0.8-4.3,1.4c-1.5,0.6-2.9,1.3-4.2,1.9c-1.2,0.7-2.3,1.3-3.2,1.9
										c-0.5,0.3-0.8,0.6-1.2,0.8c-0.4,0.2-0.6,0.4-0.9,0.6c-0.2,0.2-0.4,0.3-0.6,0.4c-0.1,0.1-0.2,0.1-0.2,0.1
										c0,0,0.1-0.1,0.2-0.2c0.1-0.1,0.3-0.3,0.5-0.4c0.2-0.2,0.5-0.4,0.9-0.7c0.3-0.2,0.7-0.5,1.2-0.8c0.9-0.6,2-1.3,3.2-1.9
										c1.2-0.7,2.7-1.3,4.2-1.9c1.5-0.6,3-1.1,4.4-1.4c1.4-0.4,2.6-0.6,3.7-0.8c0.5-0.1,1-0.1,1.4-0.2c0.4-0.1,0.8-0.1,1.1-0.1
										c0.3,0,0.5,0,0.7-0.1C173.7,206,173.8,206,173.8,206z"/>
								</g>
							</g>
						</g>
					</g>
				</g>
			</g>
			<g>
				<g>
					<g>
						<g>
							<g>
								<g>
									<path class="st5" d="M245.4,196.5c0,0-0.1-0.2-0.4-0.4c-0.3-0.2-0.7-0.5-1.3-0.5c-0.6-0.1-1.3,0-2.1,0.2
										c-0.8,0.2-1.7,0.5-2.5,0.9c-1.7,0.8-3.2,1.7-4.1,2.6c-1,0.8-1.5,1.4-1.5,1.4c0,0,0.1-0.2,0.3-0.4c0.2-0.3,0.6-0.6,1.1-1
										c0.9-0.8,2.4-1.9,4.1-2.6c0.9-0.4,1.8-0.7,2.6-0.9c0.8-0.2,1.6-0.3,2.2-0.2c0.6,0.1,1.1,0.4,1.4,0.6
										c0.1,0.1,0.2,0.2,0.3,0.3C245.4,196.5,245.4,196.5,245.4,196.5z"/>
								</g>
							</g>
						</g>
					</g>
				</g>
			</g>
		</g>
		<g>
			<g>
				<g>
					<g>
						<g>
							<g>
								<path class="st10" d="M374.5,185.9c0,0-0.6,0.2-1.7,0.2c-0.6,0-1.2-0.1-2-0.2c-0.8-0.2-1.6-0.4-2.6-0.8
									c-0.9-0.3-1.9-0.8-3-1.2c-0.5-0.2-1.1-0.4-1.7-0.7c-0.6-0.2-1.2-0.4-1.8-0.6c-2.5-0.8-5.2-1.6-8.2-2.2
									c-5.9-1.2-11.3-1.7-15.3-1.9c-1-0.1-1.9-0.1-2.7-0.1c-0.8,0-1.5,0-2,0c-0.5,0-1,0-1.3,0c-0.1,0-0.2,0-0.3,0
									c-0.1,0-0.1,0-0.1,0c0,0,0,0,0.1,0c0.1,0,0.2,0,0.3,0c0.3,0,0.7,0,1.3-0.1c0.6,0,1.2,0,2,0c0.8,0,1.7,0,2.7,0
									c3.9,0.1,9.4,0.6,15.3,1.8c3,0.6,5.7,1.4,8.2,2.3c0.6,0.2,1.2,0.4,1.8,0.7c0.6,0.2,1.1,0.5,1.7,0.7c1.1,0.5,2,0.9,3,1.3
									c0.9,0.4,1.8,0.6,2.5,0.8c0.8,0.2,1.4,0.3,2,0.3c0.5,0,1,0,1.3,0c0.1,0,0.2,0,0.3,0C374.5,185.9,374.5,185.9,374.5,185.9z"
									/>
							</g>
						</g>
					</g>
				</g>
			</g>
		</g>
	</g>
	<g>
		<g>
			<g>
				
					<ellipse transform="matrix(0.7071 -0.7071 0.7071 0.7071 -126.3329 276.3947)" class="st12" cx="270.5" cy="290.7" rx="10.4" ry="10.4"/>
			</g>
		</g>
	</g>
	<g>
		<g>
			<g>
				<path class="st10" d="M270.7,295.2c-0.1,0-0.3-0.1-0.4-0.2l-5.2-6.1c-0.2-0.2-0.2-0.5,0.1-0.7c0.2-0.2,0.5-0.2,0.7,0.1l4.8,5.6
					l4.3-5.6c0.2-0.2,0.5-0.3,0.7-0.1c0.2,0.2,0.3,0.5,0.1,0.7l-4.7,6.1C271,295.2,270.9,295.2,270.7,295.2
					C270.7,295.2,270.7,295.2,270.7,295.2z"/>
			</g>
		</g>
	</g>
	<g>
		<path d="M155.9,109.3h4.8v1.5h-6.7v-10.7h1.9V109.3z"/>
		<path d="M173.7,100.2v7.1c0,1.1-0.4,2-1.1,2.7c-0.7,0.7-1.7,1-2.9,1c-1.2,0-2.2-0.3-2.9-1c-0.7-0.7-1.1-1.6-1.1-2.7v-7.1h1.8v7.1
			c0,0.7,0.2,1.3,0.5,1.6s0.9,0.6,1.6,0.6c1.4,0,2.1-0.8,2.1-2.3v-7.1H173.7z"/>
		<path d="M183.1,104l2.2-3.9h2.1l-3.2,5.3l3.3,5.4h-2.2l-2.3-3.9l-2.3,3.9h-2.2l3.3-5.4l-3.2-5.3h2.1L183.1,104z"/>
		<path d="M200.8,107.3c-0.1,1.1-0.5,2-1.3,2.7c-0.7,0.6-1.7,1-2.9,1c-0.8,0-1.6-0.2-2.2-0.6c-0.6-0.4-1.1-1-1.5-1.7
			s-0.5-1.6-0.5-2.6v-1c0-1,0.2-1.9,0.5-2.7s0.9-1.4,1.5-1.8c0.7-0.4,1.4-0.6,2.3-0.6c1.2,0,2.1,0.3,2.8,1c0.7,0.6,1.1,1.5,1.3,2.7
			H199c-0.1-0.8-0.3-1.3-0.7-1.7c-0.4-0.3-0.9-0.5-1.6-0.5c-0.8,0-1.4,0.3-1.9,0.9c-0.4,0.6-0.7,1.5-0.7,2.6v0.9
			c0,1.2,0.2,2,0.6,2.6c0.4,0.6,1,0.9,1.8,0.9c0.7,0,1.3-0.2,1.6-0.5s0.6-0.9,0.7-1.6H200.8z"/>
		<path d="M212.2,108.3H208l-0.9,2.5h-1.9l4-10.7h1.7l4,10.7H213L212.2,108.3z M208.6,106.8h3.1l-1.5-4.4L208.6,106.8z"/>
		<path d="M223.8,106.7h-2.1v4.1h-1.9v-10.7h3.8c1.2,0,2.2,0.3,2.8,0.8c0.7,0.6,1,1.4,1,2.4c0,0.7-0.2,1.3-0.5,1.8
			c-0.3,0.5-0.8,0.9-1.4,1.1l2.4,4.4v0.1h-2L223.8,106.7z M221.8,105.2h1.9c0.6,0,1.1-0.2,1.5-0.5c0.4-0.3,0.5-0.7,0.5-1.3
			c0-0.6-0.2-1-0.5-1.3c-0.3-0.3-0.8-0.5-1.5-0.5h-2V105.2z"/>
	</g>
</g>
<g>
	<g>
		<g>
			<g>
				<g>
					<g>
						<g>
							<g>
								<g>
									<g>
										<g>
											<g>
												<g>
													<g>
														<g>
															<g>
																<g>
																	<path class="st9" d="M104.5,431.1l-0.6,17.5c0,0,17.6,6.5,17.8,9.8l-34.1,0l-0.1-27.4L104.5,431.1z"/>
																</g>
															</g>
														</g>
													</g>
												</g>
											</g>
										</g>
									</g>
								</g>
							</g>
						</g>
					</g>
				</g>
				<g>
					<g>
						<g>
							<g>
								<g>
									<g>
										<g>
											<g>
												<g>
													<g>
														<g>
															<g>
																<g>
																	<g>
																		<path class="st11" d="M93.3,447.2c-0.7,0.2-1.1,0.9-1,1.6c0.2,0.7,0.9,1.1,1.6,1c0.7-0.2,1.2-1,1-1.7
																			c-0.2-0.6-1.1-1.1-1.7-0.8"/>
																	</g>
																</g>
															</g>
														</g>
													</g>
												</g>
											</g>
										</g>
									</g>
								</g>
							</g>
						</g>
					</g>
				</g>
				<g>
					<g>
						<g>
							<g>
								<g>
									<g>
										<g>
											<g>
												<g>
													<g>
														<g>
															<g>
																<g>
																	<path class="st10" d="M87.6,458.4l0.1-2.8l32.6,1.1c0,0,1.5,0.7,1.3,1.7L87.6,458.4z"/>
																</g>
															</g>
														</g>
													</g>
												</g>
											</g>
										</g>
									</g>
								</g>
							</g>
						</g>
					</g>
				</g>
				<g>
					<g>
						<g>
							<g>
								<g>
									<g>
										<g>
											<g>
												<g>
													<g>
														<g>
															<g>
																<g>
																	<g>
																		<path class="st5" d="M104.4,448.5c0,0.2-0.8,0.2-1.7,0.8c-0.8,0.5-1.3,1.2-1.4,1.2c-0.2,0,0.1-1,1.1-1.7
																			C103.4,448.1,104.4,448.3,104.4,448.5z"/>
																	</g>
																</g>
															</g>
														</g>
													</g>
												</g>
											</g>
										</g>
									</g>
								</g>
							</g>
						</g>
					</g>
				</g>
				<g>
					<g>
						<g>
							<g>
								<g>
									<g>
										<g>
											<g>
												<g>
													<g>
														<g>
															<g>
																<g>
																	<g>
																		<path class="st5" d="M108,450c0,0.2-0.7,0.4-1.2,1.1c-0.6,0.7-0.7,1.4-0.9,1.4c-0.2,0-0.3-0.9,0.4-1.8
																			C107,449.9,108,449.8,108,450z"/>
																	</g>
																</g>
															</g>
														</g>
													</g>
												</g>
											</g>
										</g>
									</g>
								</g>
							</g>
						</g>
					</g>
				</g>
				<g>
					<g>
						<g>
							<g>
								<g>
									<g>
										<g>
											<g>
												<g>
													<g>
														<g>
															<g>
																<g>
																	<g>
																		<path class="st5" d="M110,454.2c-0.2,0-0.4-0.8,0-1.7c0.4-0.9,1.2-1.3,1.3-1.1c0.1,0.1-0.4,0.6-0.8,1.4
																			C110.2,453.5,110.1,454.2,110,454.2z"/>
																	</g>
																</g>
															</g>
														</g>
													</g>
												</g>
											</g>
										</g>
									</g>
								</g>
							</g>
						</g>
					</g>
				</g>
				<g>
					<g>
						<g>
							<g>
								<g>
									<g>
										<g>
											<g>
												<g>
													<g>
														<g>
															<g>
																<g>
																	<g>
																		<path class="st5" d="M104.1,444.5c-0.1,0.2-0.8-0.1-1.8,0c-0.9,0-1.7,0.4-1.8,0.2c-0.1-0.1,0.6-0.7,1.7-0.8
																			C103.4,443.8,104.2,444.3,104.1,444.5z"/>
																	</g>
																</g>
															</g>
														</g>
													</g>
												</g>
											</g>
										</g>
									</g>
								</g>
							</g>
						</g>
					</g>
				</g>
			</g>
		</g>
		<g>
			<g>
				<g>
					<g>
						<g>
							<g>
								<g>
									<g>
										<g>
											<g>
												<path class="st9" d="M65.4,432.7L64,453.9l3.8,17.1c0.3,1.2-0.6,2.4-1.8,2.6l0,0c-0.7,0.1-1.4-0.1-1.9-0.6
													c-3.1-3.2-14.5-15.2-14.3-16.8c0.2-1.8-0.1-22.5-0.1-22.5L65.4,432.7z"/>
											</g>
										</g>
									</g>
								</g>
							</g>
						</g>
					</g>
				</g>
				<g>
					<g>
						<g>
							<g>
								<g>
									<g>
										<g>
											<g>
												<path class="st10" d="M66,473.6l-16.1-18.8l0,0.9c0,0.8,0.2,1.5,0.7,2.2c1.3,1.6,4.9,6.1,13.5,15.1
													C64.6,473.5,65.3,473.7,66,473.6L66,473.6z"/>
											</g>
										</g>
									</g>
								</g>
							</g>
						</g>
					</g>
				</g>
				<g class="st18">
					<g>
						<g>
							<g>
								<g>
									<g>
										<g>
											<g>
												<g>
													<path class="st5" d="M54.5,448.1c0.5,0.4,0.7,1.2,0.3,1.7c-0.4,0.5-1.2,0.7-1.7,0.3c-0.5-0.4-0.7-1.3-0.3-1.8
														C53.2,447.8,54.2,447.7,54.5,448.1"/>
												</g>
											</g>
										</g>
									</g>
								</g>
							</g>
						</g>
					</g>
				</g>
				<g>
					<g>
						<g>
							<g>
								<g>
									<g>
										<g>
											<g>
												<g>
													<path class="st5" d="M61.5,464.1c0.1,0.1,0.6-1,1.9-1.6c1.3-0.6,2.4-0.2,2.5-0.4c0-0.1-0.2-0.2-0.7-0.3
														c-0.5-0.1-1.2-0.1-1.9,0.3c-0.7,0.3-1.2,0.8-1.5,1.2C61.5,463.8,61.5,464.1,61.5,464.1z"/>
												</g>
											</g>
										</g>
									</g>
								</g>
							</g>
						</g>
					</g>
				</g>
				<g>
					<g>
						<g>
							<g>
								<g>
									<g>
										<g>
											<g>
												<g>
													<path class="st5" d="M62.9,467c0.1,0.1,0.8-0.6,1.9-0.8c1.1-0.3,2-0.1,2.1-0.2c0.1-0.1-0.9-0.6-2.2-0.3
														C63.5,466.1,62.8,467,62.9,467z"/>
												</g>
											</g>
										</g>
									</g>
								</g>
							</g>
						</g>
					</g>
				</g>
				<g>
					<g>
						<g>
							<g>
								<g>
									<g>
										<g>
											<g>
												<g>
													<path class="st5" d="M58.9,460.4c0.1,0.1,1.2-0.9,2.9-1.5c1.7-0.6,3.2-0.5,3.2-0.6c0-0.1-1.5-0.5-3.3,0.2
														C59.8,459.1,58.8,460.3,58.9,460.4z"/>
												</g>
											</g>
										</g>
									</g>
								</g>
							</g>
						</g>
					</g>
				</g>
				<g>
					<g>
						<g>
							<g>
								<g>
									<g>
										<g>
											<g>
												<g>
													<path class="st5" d="M58.7,453.9c0.1,0.1,1.2-0.3,2.8-0.3c1.5,0,2.7,0.4,2.8,0.3c0.1-0.1-1.1-0.8-2.8-0.8
														C59.9,453.1,58.7,453.8,58.7,453.9z"/>
												</g>
											</g>
										</g>
									</g>
								</g>
							</g>
						</g>
					</g>
				</g>
				<g>
					<g>
						<g>
							<g>
								<g>
									<g>
										<g>
											<g>
												<g>
													<path class="st5" d="M59,447.7c0.1,0.1,1.3-0.5,2.9-0.4c1.6,0.1,2.7,0.9,2.8,0.8c0,0-0.2-0.3-0.7-0.6
														c-0.5-0.3-1.2-0.6-2.1-0.7c-0.9-0.1-1.7,0.1-2.2,0.3C59.2,447.4,59,447.6,59,447.7z"/>
												</g>
											</g>
										</g>
									</g>
								</g>
							</g>
						</g>
					</g>
				</g>
				<g>
					<g>
						<g>
							<g>
								<g>
									<g>
										<g>
											<g>
												<g>
													<path class="st5" d="M61.9,446.1c0,0,0.1-0.3,0.1-0.8c0-0.5-0.1-1.3-0.6-2.1c-0.2-0.4-0.4-0.9-1-1.2
														c-0.3-0.2-0.7-0.1-1,0.2c-0.3,0.3-0.4,0.6-0.4,0.9c0,1.3,1.1,2.7,2.6,3c1.5,0.2,2.9-0.6,3.6-1.7c0.1-0.3,0.3-0.7,0.1-1
														c-0.1-0.4-0.6-0.5-0.9-0.5c-0.6,0.1-1,0.4-1.4,0.7c-0.8,0.6-1.2,1.2-1.5,1.6c-0.3,0.4-0.4,0.7-0.4,0.7
														c0.1,0.1,0.6-1,2.1-2c0.4-0.2,0.8-0.5,1.3-0.6c0.2,0,0.4,0.1,0.5,0.3c0.1,0.2,0,0.4-0.1,0.7c-0.5,0.9-1.8,1.7-3.1,1.5
														c-1.3-0.2-2.2-1.4-2.2-2.5c0-0.3,0.1-0.5,0.2-0.7c0.1-0.1,0.4-0.2,0.5-0.1c0.4,0.2,0.7,0.6,0.9,1
														C61.9,444.9,61.8,446.1,61.9,446.1z"/>
												</g>
											</g>
										</g>
									</g>
								</g>
							</g>
						</g>
					</g>
				</g>
			</g>
		</g>
		<g>
			<g>
				<g>
					<g>
						<g>
							<path class="st10" d="M119.4,282.9c0,0,2.8,9.9,2.2,22.1c-0.3,4.7-15.4,141.1-15.4,141.1l-19.3-1.7l3.3-127.5l-0.8,0.7
								c0,0-11.5,53.6-12.3,62.1c-0.7,7.6-9.9,68.9-9.9,68.9l-18.7-0.9l4.2-77.4l5.7-70.3l2.3-20.5L119.4,282.9z"/>
						</g>
					</g>
				</g>
			</g>
			<g>
				<g>
					<g>
						<g>
							<g>
								<path class="st9" d="M86.5,305.9c0,0,0.3,0.2,0.9,0.5c0.6,0.3,1.5,0.7,2.7,0.9c0.6,0.1,1.3,0.1,2,0c0.7-0.1,1.4-0.5,2-1
									c0.6-0.6,1-1.4,1.2-2.2c0.2-0.8,0.4-1.7,0.5-2.6c0.6-3.6,1-6.8,1.2-9.1c0.1-1.2,0.2-2.1,0.2-2.8c0-0.7,0-1,0-1
									c0,0-0.1,0.4-0.2,1c-0.1,0.7-0.2,1.7-0.4,2.8c-0.3,2.3-0.7,5.6-1.3,9.1c-0.3,1.8-0.5,3.5-1.6,4.6c-1.1,1-2.6,1.2-3.7,1.1
									c-1.1-0.1-2-0.5-2.7-0.7C86.8,305.9,86.5,305.8,86.5,305.9z"/>
							</g>
						</g>
					</g>
				</g>
			</g>
			<g>
				<g>
					<g>
						<g>
							<g>
								<path class="st9" d="M92.6,289.1c0,0-0.1-0.1-0.4-0.1c-0.3,0-0.8,0.1-1.2,0.4c-0.4,0.3-0.9,0.9-0.9,1.7
									c0,0.8,0.6,1.5,1.4,1.8c0.8,0.3,1.8,0.1,2.2-0.5c0.5-0.6,0.5-1.3,0.4-1.9c-0.1-0.5-0.4-0.9-0.7-1.1
									c-0.2-0.2-0.4-0.2-0.4-0.2c-0.1,0.1,0.6,0.3,0.8,1.3c0.1,0.5,0,1.1-0.4,1.5c-0.4,0.5-1.1,0.6-1.8,0.4
									c-0.7-0.2-1.1-0.8-1.1-1.4c0-0.6,0.3-1.1,0.7-1.4C91.9,289,92.6,289.2,92.6,289.1z"/>
							</g>
						</g>
					</g>
				</g>
			</g>
			<g>
				<g>
					<g>
						<g>
							<g>
								<path class="st9" d="M58.7,298.7c0,0,0.3,0.1,0.7,0.1c0.5,0,1.2,0,2,0c1.7-0.1,4-0.6,6.4-1.6c2.4-1.1,4.3-2.5,5.5-3.7
									c0.6-0.6,1.1-1.1,1.4-1.5c0.3-0.4,0.4-0.6,0.4-0.6c-0.1-0.1-0.7,0.8-2,1.9c-1.3,1.1-3.1,2.5-5.5,3.5c-2.3,1-4.6,1.5-6.3,1.7
									C59.8,298.7,58.7,298.6,58.7,298.7z"/>
							</g>
						</g>
					</g>
				</g>
			</g>
			<g>
				<g>
					<g>
						<g>
							<g>
								<path class="st9" d="M110.7,289.1c0,0,0.3,0.9,1.2,2.2c0.8,1.3,2.1,2.9,3.8,4.5c1.7,1.6,3.5,2.8,4.8,3.5
									c1.3,0.7,2.2,1,2.2,1c0-0.1-0.8-0.5-2.1-1.3c-1.3-0.8-3-2-4.7-3.5c-1.7-1.6-3-3.2-3.9-4.4
									C111.3,289.8,110.8,289,110.7,289.1z"/>
							</g>
						</g>
					</g>
				</g>
			</g>
		</g>
		<g>
			<g>
				<g>
					<g>
						<g>
							<g>
								<g>
									<g>
										<g>
											<g>
												<path class="st19" d="M106.7,145.4c-1.3-8.7-9.1-14.9-17.9-14.3l-0.9,0.1c-9.4,1.2-13.5,9.9-12.1,19.2l3.3,33.1l0.2,6.8
													l22.3,2l-0.5-14.4c0,0,8.9-2.1,8.4-11.1C109.2,162.4,107.9,153.5,106.7,145.4z"/>
											</g>
										</g>
									</g>
								</g>
							</g>
						</g>
						<g>
							<g>
								<g>
									<g>
										<g>
											<g>
												<g>
													<g>
														<path class="st20" d="M101.2,177.9c0,0-5.7,0.8-12.1-2.6c0,0,3.3,6.3,12.2,4.8L101.2,177.9z"/>
													</g>
												</g>
											</g>
										</g>
									</g>
								</g>
							</g>
						</g>
						<g>
							<g>
								<g>
									<g>
										<g>
											<g>
												<g>
													<g>
														<g>
															<g>
																<g>
																	<path class="st10" d="M105.4,153.8c0.1,0.7-0.4,1.3-1.1,1.4c-0.7,0.1-1.3-0.4-1.4-1.1c-0.1-0.7,0.4-1.3,1.1-1.4
																		C104.7,152.6,105.3,153.1,105.4,153.8z"/>
																</g>
															</g>
														</g>
													</g>
												</g>
											</g>
										</g>
									</g>
								</g>
							</g>
						</g>
						<g>
							<g>
								<g>
									<g>
										<g>
											<g>
												<g>
													<g>
														<g>
															<g>
																<g>
																	<g>
																		<path class="st10" d="M105.1,150c-0.1,0.2-1.2-0.5-2.6-0.4c-1.4,0.1-2.4,0.9-2.5,0.7c-0.1-0.1,0.1-0.4,0.5-0.7
																			c0.4-0.4,1.1-0.7,2-0.8c0.9-0.1,1.6,0.2,2.1,0.5C105,149.6,105.1,149.9,105.1,150z"/>
																	</g>
																</g>
															</g>
														</g>
													</g>
												</g>
											</g>
										</g>
									</g>
								</g>
							</g>
						</g>
						<g>
							<g>
								<g>
									<g>
										<g>
											<g>
												<g>
													<g>
														<g>
															<g>
																<g>
																	<path class="st10" d="M92.3,155.3c0.1,0.7-0.4,1.3-1.1,1.4c-0.7,0.1-1.3-0.4-1.4-1.1c-0.1-0.7,0.4-1.3,1.1-1.4
																		C91.6,154.2,92.2,154.6,92.3,155.3z"/>
																</g>
															</g>
														</g>
													</g>
												</g>
											</g>
										</g>
									</g>
								</g>
							</g>
						</g>
						<g>
							<g>
								<g>
									<g>
										<g>
											<g>
												<g>
													<g>
														<g>
															<g>
																<g>
																	<g>
																		<path class="st10" d="M91.4,151.2c-0.1,0.2-1.2-0.5-2.6-0.4c-1.4,0.1-2.4,0.9-2.5,0.7c-0.1-0.1,0.1-0.4,0.5-0.7
																			c0.4-0.4,1.1-0.7,2-0.8c0.9-0.1,1.6,0.2,2.1,0.5C91.3,150.8,91.5,151.1,91.4,151.2z"/>
																	</g>
																</g>
															</g>
														</g>
													</g>
												</g>
											</g>
										</g>
									</g>
								</g>
							</g>
						</g>
						<g>
							<g>
								<g>
									<g>
										<g>
											<g>
												<g>
													<g>
														<g>
															<g>
																<g>
																	<path class="st10" d="M97.2,161.1c0-0.1,0.8-0.3,2.2-0.6c0.4-0.1,0.7-0.2,0.7-0.4c0.1-0.3-0.1-0.6-0.3-1
																		c-0.4-0.8-0.8-1.7-1.2-2.6c-1.7-3.7-3-6.8-2.9-6.9c0.2-0.1,1.7,2.9,3.4,6.6c0.4,0.9,0.8,1.8,1.2,2.6
																		c0.2,0.4,0.4,0.8,0.3,1.4c-0.1,0.3-0.3,0.5-0.5,0.6c-0.2,0.1-0.4,0.1-0.6,0.1C98.1,161.1,97.2,161.2,97.2,161.1z"
																		/>
																</g>
															</g>
														</g>
													</g>
												</g>
											</g>
										</g>
									</g>
								</g>
							</g>
						</g>
						<g>
							<g>
								<g>
									<g>
										<g>
											<g>
												<g>
													<g>
														<g>
															<g>
																<g>
																	<path class="st10" d="M93.2,162.4c0.2,0,0.3,1.5,1.7,2.5c1.4,1,3,0.7,3,0.9c0,0.1-0.3,0.3-1,0.4
																		c-0.7,0.1-1.7-0.1-2.5-0.7c-0.8-0.6-1.2-1.5-1.3-2.1C93,162.8,93.1,162.4,93.2,162.4z"/>
																</g>
															</g>
														</g>
													</g>
												</g>
											</g>
										</g>
									</g>
								</g>
							</g>
						</g>
						<g>
							<g>
								<g>
									<g>
										<g>
											<g>
												<g>
													<path class="st10" d="M91.4,145.7c-0.1,0.4-1.5,0.3-3.1,0.6c-1.6,0.3-2.9,0.9-3.1,0.5c-0.1-0.2,0.1-0.5,0.6-0.9
														c0.5-0.4,1.3-0.8,2.3-1c1-0.2,1.9-0.1,2.5,0.1C91.1,145.3,91.4,145.6,91.4,145.7z"/>
												</g>
											</g>
										</g>
									</g>
								</g>
							</g>
						</g>
						<g>
							<g>
								<g>
									<g>
										<g>
											<g>
												<g>
													<path class="st10" d="M104.3,146c-0.2,0.3-1.2,0.1-2.4,0.1c-1.2,0-2.1,0.4-2.4,0.1c-0.1-0.2,0-0.5,0.4-0.8
														c0.4-0.3,1.1-0.6,1.9-0.7c0.8,0,1.5,0.2,1.9,0.5C104.2,145.5,104.4,145.8,104.3,146z"/>
												</g>
											</g>
										</g>
									</g>
								</g>
							</g>
						</g>
						<g>
							<g>
								<g>
									<g>
										<g>
											<g>
												<path class="st19" d="M77.9,159.1c-0.2-1.4-1.4-2.4-2.8-2.2c-1.7,0.3-3.5,1.4-3.1,4.9c0.6,6.2,6.7,4.2,6.7,4.1
													C78.7,165.7,78.2,161.7,77.9,159.1z"/>
											</g>
										</g>
									</g>
								</g>
							</g>
						</g>
						<g>
							<g>
								<g>
									<g>
										<g>
											<g>
												<path class="st20" d="M77.1,163.6c0,0-0.1,0.1-0.3,0.2c-0.2,0.1-0.5,0.2-0.8,0.1c-0.7-0.2-1.3-1.1-1.5-2.3
													c-0.1-0.6,0-1.1,0.1-1.6c0.1-0.5,0.4-0.8,0.7-0.9c0.3-0.1,0.6,0.1,0.7,0.2c0.1,0.2,0.1,0.3,0.1,0.3c0,0,0.1-0.1,0-0.4
													c0-0.1-0.1-0.3-0.3-0.4c-0.2-0.1-0.4-0.1-0.6-0.1c-0.5,0.1-0.9,0.6-1,1.1c-0.2,0.5-0.3,1.1-0.2,1.8
													c0.2,1.2,0.9,2.3,1.8,2.5c0.4,0.1,0.8-0.1,1-0.3C77.1,163.8,77.1,163.7,77.1,163.6z"/>
											</g>
										</g>
									</g>
								</g>
							</g>
						</g>
					</g>
				</g>
			</g>
			<g>
				<g>
					<g>
						<g>
							<g>
								<g>
									<path class="st19" d="M131.3,212c2.9,8.4,3.8,8.5,6.4,32.6c0.5,4.7-0.8,11.8-4.9,14c-4.2,2.2-11.5-0.2-14-4.2l-2.8-17.8
										L131.3,212z"/>
								</g>
							</g>
						</g>
					</g>
				</g>
				<g>
					<g>
						<g>
							<g>
								<g>
									<g>
										<path class="st20" d="M121.1,247.5c0.1,0,0.5-1.7,1.6-3.6c1-1.9,2.3-3.2,2.2-3.2c0,0-0.4,0.3-0.8,0.8
											c-0.5,0.5-1.1,1.3-1.6,2.3c-0.5,1-0.9,1.9-1.1,2.6C121.1,247.1,121.1,247.5,121.1,247.5z"/>
									</g>
								</g>
							</g>
						</g>
					</g>
				</g>
				<g>
					<g>
						<g>
							<g>
								<line class="st13" x1="114.9" y1="187.3" x2="114.9" y2="187.3"/>
							</g>
						</g>
					</g>
					<g>
						<g>
							<g>
								<path class="st13" d="M60.7,257.3l0.1-19.9l-0.1-1.9l-20.2-4.7c0,0,4-13,7.6-27.1c2.1-8.1,9.1-12.2,10.8-13l0,0l0.4-0.2
									c0,0,0,0,0,0l0,0l19.7-7.5c3.9,4.2,9.3,6.8,14.8,5.2c3-0.9,5.8-2.5,7.6-4.9l13.4,3.9l0,0c3.4,1.2,6.9,3.6,9,7.3
									c2.7,4.8,11.5,27,11.6,27.5l-16.2,1.5c0,0,2.9,52.6,1.9,61.9c0,0-3.9,2.7-13.9,3.2c-20.1,1-50.1-0.5-50.1-0.5
									c0.5-3,1-8.1,1.2-10.7L60.7,257.3z"/>
							</g>
						</g>
					</g>
				</g>
				<g>
					<g>
						<g>
							<g>
								<g>
									<g>
										<path class="st10" d="M118.9,204c-0.1,0,0.3,12.5,1,28c0.6,15.5,1.2,28,1.3,28c0.1,0-0.3-12.5-1-28
											C119.5,216.6,118.9,204,118.9,204z"/>
									</g>
								</g>
							</g>
						</g>
					</g>
				</g>
			</g>
			<g>
				<g>
					<g>
						<g>
							<g>
								<g>
									<path class="st10" d="M137.3,214.5l-6.3,26.1c-0.3,1.4-1.6,2.5-3.7,3l-35.5,0.1c-1.4-0.6-3-2.4-2.6-4.4l4.7-24.9
										c0.3-1.5,1.6-2.6,3.1-2.6l37.4-0.9C136.3,210.9,137.7,212.6,137.3,214.5z"/>
								</g>
							</g>
						</g>
					</g>
				</g>
				<g>
					<g>
						<g>
							<g>
								<g>
									<g>
										<path class="st19" d="M139.6,219.7c0.7-0.8,0.6-2-0.1-2.8c-0.6-0.8-1.7-1.2-2.7-1.2c-1,0-2,0.3-3,0.7
											c-1.2,0.5-2.3,1.1-3.3,1.8c-0.7,0.5-1.5,1.1-1.6,2c-0.1,0.9,0.8,1.9,1.6,1.4c-1,0.4-2,1.5-2.1,2.6c-0.1,1.1,0.5,1.7,1.6,2
											c-0.8,0.3-1.3,1.4-0.9,2.2c0.4,0.8,1.6,1,2.4,0.7c0.9-0.3,1.5-1.1,2.1-1.8c-0.6,1.1-0.5,2.8-0.3,4c2.3-0.9,4.7-3.5,4-6
											c1.1-0.9,1.7-2.8,0.9-4c0.9-0.3,2-1.8,1.9-2.8"/>
									</g>
								</g>
							</g>
						</g>
					</g>
					<g>
						<g>
							<g>
								<g>
									<path class="st20" d="M133.2,231.2c0,0,0.3-0.3,0.9-0.7c0.6-0.4,1.4-1,2-1.8c0.7-0.8,1-1.7,1-2.4c0.1-0.7,0-1.1,0.1-1.1
										c0,0,0.2,0.4,0.2,1.1c0,0.7-0.3,1.7-1,2.6c-0.7,0.9-1.5,1.4-2.2,1.8C133.6,231.1,133.2,231.2,133.2,231.2z"/>
								</g>
							</g>
						</g>
					</g>
					<g>
						<g>
							<g>
								<g>
									<g>
										<g>
											<path class="st20" d="M130,226.2c0,0,0.4-0.3,1-0.8c0.6-0.5,1.5-1.2,2.7-1.4c0.6-0.1,1.1-0.1,1.6,0
												c0.5,0.1,0.9,0.3,1.2,0.6c0.6,0.5,0.8,1,0.8,1c0,0,0-0.1-0.1-0.3c-0.1-0.2-0.3-0.5-0.6-0.8c-0.3-0.3-0.7-0.5-1.3-0.7
												c-0.5-0.1-1.1-0.1-1.8,0c-1.2,0.3-2.1,1-2.7,1.6C130.3,225.8,130,226.2,130,226.2z"/>
										</g>
									</g>
								</g>
							</g>
						</g>
					</g>
					<g>
						<g>
							<g>
								<g>
									<g>
										<g>
											<path class="st20" d="M130.2,221.7c0,0,0.5-0.2,1.2-0.5c0.4-0.2,0.8-0.4,1.3-0.6c0.5-0.2,1.1-0.4,1.7-0.5
												c0.6-0.1,1.2-0.1,1.7-0.1c0.5,0.1,1,0.3,1.3,0.5c0.7,0.5,0.8,1,0.9,1c0,0,0-0.1-0.1-0.4c-0.1-0.2-0.3-0.5-0.6-0.8
												c-0.3-0.3-0.8-0.5-1.4-0.6c-0.6-0.1-1.2-0.1-1.8,0c-0.6,0.1-1.2,0.3-1.7,0.5c-0.5,0.2-0.9,0.5-1.3,0.7
												C130.6,221.4,130.2,221.6,130.2,221.7z"/>
										</g>
									</g>
								</g>
							</g>
						</g>
					</g>
				</g>
			</g>
		</g>
		<g>
			<g>
				<g>
					<g>
						<g>
							<path class="st10" d="M73,152.8c0.5,1.8,0.3,4.7,1.9,4.3c3.1-0.8,2.4,5.6,3.9,5c1.5-0.6,2.8-2.5,2.9-6.4
								c0.1-5-1.9-8.6,0.1-14.4c1.3-2.3,3.7-3.9,6.3-3.9c2.7-0.1,5.2,1.3,6.7,3.5c0.3-1.8,1.1-4.4,2.7-5.2s3.6-0.7,5,0.4
								c1.3,1.2,1.7,3.4,0.7,4.8c0.7,0.2,1.6-0.1,2-0.7c0.1,0.8-0.2,1.7-0.8,2.3c0.6-0.2,1.2-0.6,1.6-1.1c-0.2,0.7-0.3,1.4-0.5,2.2
								c2.6,0.1,5.2-2.5,6-4.8c1.1-3.5,0.3-6.9-1.7-10c-1.9-3.1-5.4-5.2-9-5.2c-3.6,0-6.7,1.8-8.1,5.1c-2.4-1.7-7.1-2.2-9.7-1.1
								c-2.6,1.2-4.5,3.8-4.8,6.7c-1.6-0.7-3.6-0.2-5,1c-0.1,0.1-0.2,0.2-0.3,0.3c-1.9,1.8-2.7,4.4-2.2,7c0.2,1,0.5,2,0.7,2.9
								C71.9,147.7,73,152.8,73,152.8z"/>
						</g>
					</g>
				</g>
			</g>
			<g>
				<g>
					<g>
						<g>
							<g>
								<path class="st9" d="M105.5,140c0,0,0.1-0.1,0.2-0.2c0.1-0.1,0.3-0.3,0.5-0.6c0.4-0.5,0.9-1.4,1-2.6c0.1-1.2-0.1-2.7-1.2-4
									c-1.1-1.2-2.8-2-4.7-1.8c-0.9,0.1-1.8,0.5-2.5,1c-0.7,0.5-1.3,1.1-1.8,1.7c-1,1.2-1.6,2.6-1.9,3.7c-0.3,1.2-0.3,2.1-0.3,2.8
									c0,0.3,0,0.6,0.1,0.8c0,0.2,0,0.3,0.1,0.3c0.1,0-0.3-1.5,0.4-3.8c0.3-1.1,0.9-2.4,1.9-3.6c1-1.2,2.4-2.3,4.2-2.6
									c1.8-0.3,3.5,0.5,4.5,1.7c1.1,1.1,1.3,2.6,1.2,3.8c-0.1,1.2-0.6,2.1-0.9,2.6C105.8,139.7,105.5,140,105.5,140z"/>
							</g>
						</g>
					</g>
				</g>
			</g>
			<g>
				<g>
					<g>
						<g>
							<g>
								<path class="st9" d="M106.7,142.8c0,0,0.1-0.1,0.2-0.3c0.1-0.2,0.3-0.5,0.5-0.9c0.4-0.8,1-1.9,1.5-3.4
									c0.2-0.8,0.4-1.6,0.4-2.6c0-0.9-0.1-2-0.5-2.9c-0.4-1-1.2-1.9-2.1-2.5c-1-0.6-2.1-1-3.4-1.1c-1.2-0.1-2.4,0.2-3.5,0.6
									c-1.1,0.4-2,1-2.9,1.6c-1.7,1.3-2.8,3-3.1,4.5c-0.4,1.6-0.1,2.9,0.2,3.7c0.2,0.4,0.3,0.7,0.5,0.9c0.1,0.2,0.2,0.3,0.2,0.3
									c0,0-0.3-0.4-0.6-1.2c-0.3-0.8-0.5-2.1-0.1-3.6c0.4-1.5,1.5-3.1,3.1-4.4c1.6-1.2,3.8-2.3,6.2-2.1c1.2,0.1,2.3,0.5,3.2,1.1
									c0.9,0.6,1.6,1.5,2,2.4c0.4,0.9,0.5,1.9,0.5,2.8c0,0.9-0.2,1.8-0.4,2.5c-0.4,1.5-1,2.7-1.4,3.4c-0.2,0.4-0.3,0.7-0.4,0.9
									C106.7,142.6,106.7,142.8,106.7,142.8z"/>
							</g>
						</g>
					</g>
				</g>
			</g>
			<g>
				<g>
					<g>
						<g>
							<g>
								<path class="st9" d="M75.2,148.8c0,0-0.6-0.5-1.3-1.4c-0.7-0.9-1.6-2.3-2-4c-0.4-1.7-0.1-3.4,0.2-4.5
									c0.3-1.1,0.7-1.7,0.7-1.8c0,0-0.1,0.1-0.3,0.4c-0.2,0.3-0.4,0.7-0.6,1.3c-0.4,1.1-0.7,2.8-0.3,4.6c0.4,1.8,1.3,3.2,2.1,4.1
									c0.4,0.4,0.8,0.8,1,1C75,148.7,75.2,148.8,75.2,148.8z"/>
							</g>
						</g>
					</g>
				</g>
			</g>
			<g>
				<g>
					<g>
						<g>
							<g>
								<path class="st9" d="M80.8,148.6c0,0-0.3-0.1-0.8-0.5c-0.5-0.3-1.1-0.9-1.6-1.9l-0.3-0.6l0.1,0.6c0.1,0.9,0.2,1.9,0.3,3
									l0.2-0.1c-0.7-0.5-1.4-1.2-2-2c-0.7-1-1.2-2.2-1.4-3.3c-0.2-1.1-0.1-2.1,0-2.9c0.3-1.6,0.9-2.5,0.9-2.6c0,0,0,0-0.1,0.2
									c-0.1,0.1-0.2,0.3-0.3,0.5c-0.2,0.4-0.5,1.1-0.7,1.9c-0.2,0.8-0.3,1.9-0.1,3c0.2,1.1,0.6,2.3,1.4,3.4c0.6,0.8,1.3,1.5,2.1,2
									l0.2,0.2l0-0.3c-0.1-1.1-0.2-2.1-0.3-3l-0.2,0.1c0.5,1,1.2,1.6,1.7,1.9c0.3,0.2,0.5,0.3,0.6,0.3
									C80.7,148.6,80.8,148.6,80.8,148.6z"/>
							</g>
						</g>
					</g>
				</g>
			</g>
			<g>
				<g>
					<g>
						<g>
							<g>
								<path class="st9" d="M82.5,135.6c0.1,0,0.3-0.9,1.4-1.8c0.6-0.4,1.3-0.9,2.2-1c0.9-0.2,2-0.1,3,0.3c1,0.4,1.9,1,2.5,1.7
									c0.6,0.7,1.1,1.4,1.3,2.1c0.6,1.3,0.6,2.2,0.7,2.2c0,0,0-0.2,0-0.6c-0.1-0.4-0.2-1-0.5-1.7c-0.3-0.7-0.7-1.5-1.3-2.2
									c-0.6-0.7-1.5-1.4-2.6-1.8c-1.1-0.4-2.2-0.5-3.1-0.3c-1,0.2-1.7,0.7-2.3,1.1c-0.6,0.5-0.9,1-1.1,1.3
									c-0.1,0.2-0.2,0.3-0.2,0.4C82.5,135.6,82.5,135.6,82.5,135.6z"/>
							</g>
						</g>
					</g>
				</g>
			</g>
			<g>
				<g>
					<g>
						<g>
							<g>
								<path class="st9" d="M84,130.9c0,0.1,0.6-0.4,1.7-0.7c1.1-0.3,2.7-0.2,4.2,0.6c1.5,0.8,2.5,2.1,3,3.1c0.5,1,0.7,1.7,0.8,1.7
									c0,0,0-0.2-0.1-0.5c-0.1-0.3-0.2-0.8-0.5-1.3c-0.5-1-1.5-2.4-3-3.3c-1.6-0.9-3.3-0.9-4.4-0.5c-0.6,0.2-1,0.4-1.3,0.5
									C84.1,130.8,84,130.9,84,130.9z"/>
							</g>
						</g>
					</g>
				</g>
			</g>
		</g>
	</g>
	<g>
		<g>
			<g>
				<g>
					<path class="st10" d="M62.9,207.5c0.1,0-0.3,11.1-0.9,24.8c-0.6,13.7-1.3,24.8-1.4,24.8s0.3-11.1,0.9-24.8
						C62.2,218.6,62.8,207.5,62.9,207.5z"/>
				</g>
			</g>
		</g>
	</g>
	<g>
		<g>
			<g>
				<path class="st19" d="M40.5,240.3c0.7-4.9,1.2-9.3,1.2-9.3l16.1,3.7l-0.7,2.6l12.5-12.7l2,0.2l6.3,6.5c0,0-5.5,11.6-8.7,16.1
					c-4.1,5.9-10.6,14.8-19.6,14C41.4,260.7,39.3,249.1,40.5,240.3z"/>
			</g>
		</g>
	</g>
	<g>
		<g>
			<g>
				<g>
					<path class="st20" d="M49.2,243.2c-0.1-0.1,1.4-1.7,3.5-3.3c2.2-1.6,4.2-2.5,4.2-2.3c0.1,0.1-1.8,1.2-3.9,2.8
						C51,241.9,49.3,243.3,49.2,243.2z"/>
				</g>
			</g>
		</g>
	</g>
	<g>
		<g>
			<g>
				<g>
					<path class="st19" d="M91.4,208.1l-5.5-2.8l-7.2,2.3l-3.6,3.3l-5.5,13.8l-4.4,5.6l7.7,10.1l4.9-8.9c0,0,4.2-1.8,5.8-4.4
						c1.7-2.6,2.4-4,2.4-4s2.4-1.2,2.8-2.3c0.4-1.1,0.4-2,0.4-2l-1.2-1.8c0,0,0.1-1.6-0.4-2.3c-0.5-0.6-1-0.8-1-0.8s0.4-1.5-0.2-2
						c-0.6-0.5-3.3-1.5-3.3-1.5l0,0l2.4-1.4C85.7,208.9,91.1,210.6,91.4,208.1z"/>
				</g>
			</g>
		</g>
		<g>
			<g>
				<g>
					<g>
						<path class="st20" d="M83.2,213.1c0,0.1,0.8,0.1,1.9,0.3c1,0.2,1.8,0.5,1.8,0.5c0-0.1-0.7-0.5-1.8-0.7
							C84,213,83.1,213.1,83.2,213.1z"/>
					</g>
				</g>
			</g>
		</g>
		<g>
			<g>
				<g>
					<g>
						<path class="st20" d="M84.8,216.2c0,0.1,0.7,0.1,1.6,0.2c0.9,0.1,1.6,0.3,1.6,0.3c0-0.1-0.7-0.4-1.6-0.5
							C85.5,216.1,84.8,216.2,84.8,216.2z"/>
					</g>
				</g>
			</g>
		</g>
		<g>
			<g>
				<g>
					<g>
						<path class="st20" d="M87.2,221.1c0.1,0,0.1-0.3,0.1-0.7c0-0.4-0.1-0.7-0.1-0.7c-0.1,0-0.1,0.3-0.1,0.7
							C87,220.8,87.1,221.1,87.2,221.1z"/>
					</g>
				</g>
			</g>
		</g>
		<g>
			<g>
				<g>
					<g>
						<path class="st20" d="M86.1,222.6c0.1,0,0-0.7,0.5-1.3c0.5-0.6,1.1-0.7,1.1-0.8c0,0-0.2,0-0.4,0c-0.3,0.1-0.6,0.3-0.9,0.6
							c-0.3,0.3-0.4,0.7-0.4,1C86,222.4,86.1,222.6,86.1,222.6z"/>
					</g>
				</g>
			</g>
		</g>
		<g>
			<g>
				<g>
					<g>
						<path class="st20" d="M81.8,218.2c0.1,0,0.3-0.6,1-0.9c0.7-0.4,1.3-0.3,1.3-0.3c0,0-0.1-0.1-0.4-0.1c-0.3,0-0.7,0-1,0.2
							c-0.4,0.2-0.6,0.5-0.7,0.7C81.8,218,81.7,218.1,81.8,218.2z"/>
					</g>
				</g>
			</g>
		</g>
		<g>
			<g>
				<g>
					<g>
						<path class="st20" d="M79.2,215.1c0.1,0,0.3-0.5,0.9-0.9c0.6-0.4,1.2-0.3,1.2-0.4c0,0-0.1-0.1-0.4-0.1c-0.3,0-0.6,0.1-0.9,0.3
							c-0.3,0.2-0.6,0.5-0.7,0.7C79.2,214.9,79.2,215.1,79.2,215.1z"/>
					</g>
				</g>
			</g>
		</g>
		<g>
			<g>
				<g>
					<g>
						<path class="st20" d="M77.5,213.6c0,0,0-0.2,0.1-0.5c0-0.3,0.1-0.7,0.4-1c0.3-0.3,0.6-0.6,0.9-0.7c0.3-0.1,0.4-0.2,0.4-0.2
							c0,0-0.2-0.1-0.5,0c-0.3,0.1-0.7,0.3-1,0.7c-0.3,0.4-0.4,0.8-0.4,1.1C77.4,213.4,77.5,213.6,77.5,213.6z"/>
					</g>
				</g>
			</g>
		</g>
		<g>
			<g>
				<g>
					<g>
						<path class="st20" d="M79.9,210c0,0.1,1.2,0.1,2.6,0.3c1.4,0.2,2.5,0.7,2.5,0.6c0,0-1-0.6-2.4-0.9c-0.7-0.1-1.4-0.1-1.8-0.1
							C80.2,209.9,79.9,209.9,79.9,210z"/>
					</g>
				</g>
			</g>
		</g>
	</g>
</g>
<g>
	<g>
		<g>
			<g>
				<path class="st10" d="M471.1,458.8c0,0.1-96.1,0.3-214.5,0.3C138.1,459.1,42,459,42,458.8s96-0.3,214.5-0.3
					C375,458.6,471.1,458.7,471.1,458.8z"/>
			</g>
		</g>
	</g>
</g>
<g>
	<g>
		<g>
			<g>
				<g>
					<g>
						<g>
							<path class="st13" d="M384.8,372.3c-4-2.5-8.5-4.1-13.2-4.5c-2.2-0.2-4.5-0.2-6.2,1.1c-0.4,0.3-0.7,0.7-0.6,1.1
								c0.1,0.3,0.3,0.6,0.6,0.8C370.8,374.9,378.9,375.4,384.8,372.3"/>
						</g>
					</g>
				</g>
			</g>
		</g>
		<g>
			<g>
				<g>
					<g>
						<g>
							<path class="st13" d="M384.5,371.9c-3-2.3-6-4.7-8.5-7.5c-2.5-2.8-4.6-6.2-5.3-9.9c-0.2-1.1-0.3-2.4,0.4-3.3
								C377.9,356.6,383.2,363.4,384.5,371.9"/>
						</g>
					</g>
				</g>
			</g>
		</g>
		<g>
			<g>
				<g>
					<g>
						<g>
							<path class="st13" d="M384.8,372.2c-0.5-3.7-0.7-7.5,0.2-11.2c0.9-3.6,2.8-7.1,5.9-9.2c1.2,2.7,0.7,5.9-0.2,8.8
								c-1.3,4.4-3.3,8.6-5.9,12.4"/>
						</g>
					</g>
				</g>
			</g>
		</g>
		<g>
			<g>
				<g>
					<g>
						<g>
							<path class="st13" d="M391.4,384.1c-4,0.5-7.5,2.6-10.6,5.3c-3,2.7-5.2,6.4-6,10.4c4-0.2,7.3-3,9.7-6.2
								C387,390.6,388.7,387.1,391.4,384.1"/>
						</g>
					</g>
				</g>
			</g>
		</g>
		<g>
			<g>
				<g>
					<g>
						<g>
							<path class="st13" d="M392.9,386.1c-3.2-8-2.1-17.6,3-24.6C398.2,369.6,397.3,378.8,392.9,386.1"/>
						</g>
					</g>
				</g>
			</g>
		</g>
		<g>
			<g>
				<g>
					<g>
						<g>
							<path class="st13" d="M401.6,396.5c-3.7-0.2-7.4,0.6-10.6,2.5c-3.2,1.8-5.8,4.6-7.4,7.9c-0.2,0.4-0.4,1-0.1,1.4
								c0.3,0.3,0.8,0.4,1.2,0.4c3.5-0.2,6.7-2.4,9.3-4.8C396.6,401.4,398.9,398.6,401.6,396.5"/>
						</g>
					</g>
				</g>
			</g>
		</g>
		<g>
			<g>
				<g>
					<g>
						<g>
							<path class="st13" d="M401.4,395.9c-1.9-6-2-12.6-0.3-18.7c0.7-2.4,1.8-5,4-6.1c0.2-0.1,0.4-0.2,0.6-0.1
								c0.2,0.1,0.3,0.3,0.4,0.4c0.8,1.7,1,3.5,0.9,5.4c-0.1,1.8-0.5,3.6-0.8,5.4c-0.7,3.3-1.1,6.9-2.9,9.8
								c-0.4,0.7-0.8,1.4-1.2,2.1c-0.3,0.7-0.3,1-0.7,1.6"/>
						</g>
					</g>
				</g>
			</g>
		</g>
		<g>
			<g>
				<g>
					<g>
						<g>
							<path class="st13" d="M424.6,399.4c-1.7-6.6,0.1-14.5,4.2-19.9c0.3-0.4,0.7-0.8,1.2-0.8c0.8,0.1,1,1.1,0.9,1.8
								C430.7,387.3,428.4,393.9,424.6,399.4"/>
						</g>
					</g>
				</g>
			</g>
		</g>
		<g>
			<g>
				<g>
					<g>
						<g>
							<path class="st13" d="M426.7,400.8c8,2.1,17.1,0.1,23.7-4.8c-3.9-2-8.5-2.6-12.8-1.6C433.3,395.4,429.4,397.3,426.7,400.8"/>
						</g>
					</g>
				</g>
			</g>
		</g>
		<g>
			<g>
				<g>
					<g>
						<g>
							<path class="st13" d="M428.5,396.5c4.5-7.3,13-12,21.5-12.4c-1,3.5-3.8,6.2-7,7.8c-3.2,1.6-6.8,2.3-10.3,3
								C431.2,395.1,429.4,395.4,428.5,396.5"/>
						</g>
					</g>
				</g>
			</g>
		</g>
		<g>
			<g>
				<g>
					<g>
						<g>
							<path class="st13" d="M425,375.3c1.2-4.1,2.4-8.3,2.8-12.6c0.3-4.3-0.3-8.8-2.5-12.5c-4.2,8.1-4.6,17.5-0.4,25.5"/>
						</g>
					</g>
				</g>
			</g>
		</g>
		<g>
			<g>
				<g>
					<g>
						<g>
							<path class="st13" d="M439.1,368.2c4.9-8.8,14.8-15.9,24.9-16.9C460,361,449.5,368.4,439.1,368.2"/>
						</g>
					</g>
				</g>
			</g>
		</g>
		<g>
			<g>
				<g>
					<g>
						<g>
							<path class="st13" d="M436,370c7.3,1.1,13.4,5.7,20.2,8.6c1.5,0.6,3,1.1,4.6,0.9c1.6-0.2,3.1-1.2,3.4-2.8
								c0.3-1.3-0.3-2.6-1.2-3.6c-0.9-0.9-2.1-1.5-3.3-2c-7.4-3.1-15.3-3.2-23.1-1.3"/>
						</g>
					</g>
				</g>
			</g>
		</g>
		<g>
			<g>
				<g>
					<g>
						<g>
							<path class="st13" d="M431.8,375.1c1.6,0.5,2.2,1.3,3.5,2.4c4.4,3.8,9.7,6.5,15.3,7.9c0.6,0.1,1.4,0.2,1.6-0.3
								c0.3-0.5-0.1-1-0.4-1.4c-2.4-3-5.7-5-9.3-6.3c-3.5-1.3-6.6-2.9-10.8-2.6"/>
						</g>
					</g>
				</g>
			</g>
		</g>
		<g>
			<g>
				<g>
					<g>
						<g>
							<path class="st13" d="M427.1,344.3c5.9,5.5,14.2,8.3,22.3,7.6c0.4,0,0.8-0.1,1-0.4c0.6-0.6-0.1-1.6-0.8-2.1
								C443,344.3,435.1,342.2,427.1,344.3"/>
						</g>
					</g>
				</g>
			</g>
		</g>
		<g>
			<g>
				<g>
					<g>
						<g>
							<path class="st13" d="M432.7,342.2c7.8-5.9,18.5-7.6,27.8-4.6c-3.5,3.4-8.4,5.3-13.2,5.8C442.3,344,437.4,343.4,432.7,342.2"
								/>
						</g>
					</g>
				</g>
			</g>
		</g>
		<g>
			<g>
				<g>
					<g>
						<g>
							<path class="st13" d="M430.4,328.1c-0.6-6.5-0.2-11.7-0.7-18.3c0-0.5-0.1-1.2-0.6-1.3c-0.7-0.3-1.3,0.6-1.5,1.3
								c-1.9,6.1-0.9,13,2.8,18.2"/>
						</g>
					</g>
				</g>
			</g>
		</g>
		<g>
			<g>
				<g>
					<g>
						<g>
							<path class="st13" d="M430,328.8c4.4-2.7,7.7-6.3,10.8-10.5c2.1-2.9,3.9-6.4,3.5-10c-3-0.1-5.9,1.6-7.8,3.9
								c-2,2.3-3.1,5.1-4,8C431.6,323,431,326,430,328.8"/>
						</g>
					</g>
				</g>
			</g>
		</g>
		<g>
			<g>
				<g>
					<g>
						<g>
							<path class="st13" d="M440.6,325.9c9.7-3.6,18.8-8.9,26.6-15.7c-3.2-1.3-6.8-0.5-10,0.8c-7.3,2.9-13.2,7.9-16.8,14.9"/>
						</g>
					</g>
				</g>
			</g>
		</g>
		<g>
			<g>
				<g>
					<g>
						<g>
							<path class="st13" d="M433,332.4c4.9,0.5,9.9,0.9,14.8,0.1c4.8-0.8,9.3-2.7,13.8-4.6c0.4-0.2,0.8-0.3,0.9-0.7
								c0.2-0.4,0-0.9-0.3-1.2c-0.3-0.3-0.8-0.4-1.2-0.6c-4.9-1.4-10.1-0.7-14.9,0.9C441.3,327.9,437.3,329.9,433,332.4"/>
						</g>
					</g>
				</g>
			</g>
		</g>
		<g>
			<g>
				<g>
					<g>
						<g>
							<path class="st13" d="M404.9,344.5c-3.4-6.8-3.1-14.7-0.2-21.6c2,3.1,2.3,7.1,1.9,10.8c-0.4,3.7-1.5,7.5-1.6,11.2"/>
						</g>
					</g>
				</g>
			</g>
		</g>
		<g>
			<g>
				<g>
					<g>
						<g>
							<path class="st13" d="M391.5,337.8c-8.4-0.2-16.8,3.4-22.4,9.6c4.2,0.7,8.5-0.4,12.3-2.3c3.8-1.9,7.2-4.5,10.5-7"/>
						</g>
					</g>
				</g>
			</g>
		</g>
		<g>
			<g>
				<g>
					<g>
						<g>
							<path class="st13" d="M382.5,334.7c-4.1-0.3-8-0.8-12,0.4c-3.9,1.2-7.5,3.9-9.1,7.7c3.8,0.4,7.7-0.5,11.2-2.1
								C376.1,339.1,379.3,336.9,382.5,334.7"/>
						</g>
					</g>
				</g>
			</g>
		</g>
		<g>
			<g>
				<g>
					<g>
						<g>
							<path class="st13" d="M395.8,334.9c-3.7-2.4-7.5-4.9-11.8-5.9c-4.3-1-9.3-0.3-12.3,3c3.5,2,7.7,2.3,11.7,2.3
								c4,0,9,0,12.8,1.3"/>
						</g>
					</g>
				</g>
			</g>
		</g>
		<g>
			<g>
				<g>
					<g>
						<g>
							<path class="st13" d="M395.8,335.1c-6.3-6.2-8.7-17.3-6.2-25.8C394.6,316.8,396.9,326.1,395.8,335.1"/>
						</g>
					</g>
				</g>
			</g>
		</g>
		<g>
			<g>
				<g>
					<g>
						<g>
							<path class="st13" d="M413.2,317.5c1.2-2.8,2-5.7,3.1-8.5c1.1-2.8,2.4-5.6,4.4-7.8c2-2.2,4.8-3.9,7.8-4
								c-1.9,8.5-7.5,16.1-15.1,20.4"/>
						</g>
					</g>
				</g>
			</g>
		</g>
		<g>
			<g>
				<g>
					<g>
						<g>
							<path class="st13" d="M410,321.2c-2-2.7-4.2-6.4-6.9-8.4c-2.7-2-6.1-3.2-9.4-2.5C397,316.2,403.3,320.4,410,321.2"/>
						</g>
					</g>
				</g>
			</g>
		</g>
		<g>
			<g>
				<g>
					<g>
						<g>
							<path class="st13" d="M410.7,317.8c-1.3-3.3-2.6-6.6-3.1-10.1c-0.5-3.5-0.2-7.2,1.6-10.2c3.5,6.5,4.6,13.6,1.7,20.4"/>
						</g>
					</g>
				</g>
			</g>
		</g>
		<g>
			<g>
				<g>
					<g>
						<g>
							<path class="st13" d="M413.2,297.5c2-6.5,7.9-11.3,14.3-13.4c0.8-0.3,1.7-0.5,2.5-0.4c0.8,0.1,1.7,0.7,1.8,1.5
								c0.2,1.1-0.7,2.1-1.5,2.8C425.3,292.3,419.5,295.5,413.2,297.5"/>
						</g>
					</g>
				</g>
			</g>
		</g>
		<g>
			<g>
				<g>
					<g>
						<g>
							<path class="st13" d="M413.3,292.2c0.2-4.2,0.5-8.4,1.9-12.4c1.4-4,4-7.7,7.8-9.4c0.6,4.2-1.2,8.4-3.5,12.1s-5,7.1-6.3,11.1"
								/>
						</g>
					</g>
				</g>
			</g>
		</g>
		<g>
			<g>
				<g>
					<g>
						<g>
							<path class="st13" d="M413.2,295c-1.6-4.7-1.8-10.7-4.6-14.8c-2-2.9-5.1-4.8-6.8-7.9c-1.1,2.8-0.8,6.1,0.4,8.9
								c1.2,2.8,3.1,5.3,5.2,7.5C409.4,291,411.2,292.7,413.2,295"/>
						</g>
					</g>
				</g>
			</g>
		</g>
		<g>
			<g>
				<g>
					<g>
						<g>
							<g>
								<path class="st10" d="M413.2,434.1c-0.1,0-0.2-31.5-0.2-70.4c0-38.9,0.1-70.4,0.2-70.4c0.1,0,0.2,31.5,0.2,70.4
									C413.4,402.6,413.3,434.1,413.2,434.1z"/>
							</g>
						</g>
					</g>
				</g>
			</g>
		</g>
		<g>
			<g>
				<g>
					<g>
						<g>
							<g>
								<path class="st10" d="M440.7,339.8c0,0-0.4,0.2-1.2,0.4c-0.9,0.3-1.9,0.7-3.3,1.1c-2.7,0.9-6.5,2.3-10.6,4
									c-4.1,1.7-7.9,3.2-10.1,5c-1.1,0.9-1.7,1.9-2,2.7c-0.3,0.7-0.4,1.2-0.4,1.2c0,0,0-0.1,0-0.3c0-0.2,0.1-0.5,0.2-0.9
									c0.3-0.8,0.9-1.9,2-2.9c1.1-1,2.6-1.9,4.4-2.7c1.7-0.8,3.7-1.7,5.7-2.5c4.1-1.7,7.9-3,10.7-3.9c1.4-0.4,2.5-0.8,3.3-1
									C440.3,339.8,440.7,339.7,440.7,339.8z"/>
							</g>
						</g>
					</g>
				</g>
			</g>
		</g>
		<g>
			<g>
				<g>
					<g>
						<g>
							<g>
								<path class="st10" d="M449.8,317.6c0,0-0.1,0.1-0.3,0.4c-0.3,0.3-0.6,0.6-1,0.9c-0.9,0.9-2.2,2-3.8,3.4
									c-3.3,2.9-7.7,6.8-12.6,11.2c-4.9,4.4-9.1,8.5-12.1,11.7c-1.5,1.6-2.6,2.9-3.4,3.8c-0.4,0.4-0.7,0.8-0.9,1
									c-0.2,0.2-0.3,0.4-0.3,0.3c0,0,0.1-0.1,0.3-0.4c0.2-0.3,0.5-0.6,0.8-1.1c0.7-0.9,1.9-2.3,3.3-3.9c2.9-3.2,7.1-7.4,12-11.8
									c4.9-4.4,9.4-8.3,12.7-11.1c1.6-1.4,2.9-2.5,3.9-3.3c0.4-0.4,0.8-0.7,1.1-0.9C449.6,317.7,449.8,317.6,449.8,317.6z"/>
							</g>
						</g>
					</g>
				</g>
			</g>
		</g>
		<g>
			<g>
				<g>
					<g>
						<g>
							<g>
								<path class="st10" d="M426.8,338c-0.1-0.1,0.9-2.4,1.9-5.4c1-3,1.5-5.5,1.6-5.5c0.1,0-0.2,2.6-1.2,5.6
									c-0.5,1.5-1.1,2.8-1.5,3.8C427.2,337.4,426.8,338,426.8,338z"/>
							</g>
						</g>
					</g>
				</g>
			</g>
		</g>
		<g>
			<g>
				<g>
					<g>
						<g>
							<g>
								<path class="st10" d="M413.2,357c0,0-0.3-0.3-0.8-0.9c-0.5-0.7-1.2-1.5-1.9-2.5c-1.6-2.1-3.9-5-6.4-8.2
									c-2.5-3.2-4.8-6-6.5-8.1c-0.8-1-1.5-1.8-2-2.4c-0.5-0.6-0.7-0.9-0.7-0.9c0,0,0.3,0.3,0.8,0.8c0.5,0.5,1.2,1.4,2.1,2.4
									c1.7,2,4.1,4.8,6.6,8c2.5,3.2,4.7,6.1,6.3,8.3c0.8,1.1,1.4,2,1.8,2.6C413,356.7,413.3,357,413.2,357z"/>
							</g>
						</g>
					</g>
				</g>
			</g>
		</g>
		<g>
			<g>
				<g>
					<g>
						<g>
							<g>
								<path class="st10" d="M407.2,349.3c-0.1,0.1-1.7-1.8-2.5-4.7c-0.6-2-0.7-3.9-0.6-4.8l0.2,0c-0.1,0.4-0.2,0.6-0.2,0.6
									c0,0,0-0.2,0-0.6l0.2,0c0.1,0.8,0.2,2.7,0.8,4.6C405.9,347.2,407.3,349.2,407.2,349.3z"/>
							</g>
						</g>
					</g>
				</g>
			</g>
		</g>
		<g>
			<g>
				<g>
					<g>
						<g>
							<g>
								<path class="st10" d="M399.4,339.5c-0.1,0.1-0.6-0.6-1.8-1c-1.2-0.5-3-0.6-4.9-0.4c-1.9,0.1-3.7,0.5-4.9,0.8
									c-1.2,0.3-2,0.6-2,0.5c0-0.1,0.7-0.4,1.9-0.8c1.2-0.4,3-0.8,5-0.9c2-0.2,3.8,0,5.1,0.5C399,338.7,399.4,339.5,399.4,339.5z"
									/>
							</g>
						</g>
					</g>
				</g>
			</g>
		</g>
		<g>
			<g>
				<g>
					<g>
						<g>
							<g>
								<path class="st10" d="M397.6,337.1c0,0.1-1-0.4-2.7-1c-1.7-0.6-4.1-1.2-6.8-1.4c-2.7-0.2-5.1,0-6.9,0.3
									c-1.7,0.3-2.8,0.6-2.8,0.6c0,0,0.2-0.1,0.7-0.3c0.5-0.2,1.2-0.4,2-0.6c1.7-0.4,4.2-0.7,7-0.5c2.7,0.2,5.2,0.9,6.8,1.5
									c0.8,0.3,1.5,0.6,1.9,0.9C397.3,336.9,397.6,337.1,397.6,337.1z"/>
							</g>
						</g>
					</g>
				</g>
			</g>
		</g>
		<g>
			<g>
				<g>
					<g>
						<g>
							<g>
								<path class="st10" d="M413.2,327c-0.1,0-1-3-2-6.9c-1-3.8-1.7-6.9-1.5-7c0.1,0,1,3,2,6.9C412.6,323.9,413.3,327,413.2,327z"
									/>
							</g>
						</g>
					</g>
				</g>
			</g>
		</g>
		<g>
			<g>
				<g>
					<g>
						<g>
							<g>
								<path class="st10" d="M413.3,327c-0.1,0-0.7-2-2.2-4.1c-1.4-2.1-3.3-3.2-3.2-3.3c0,0,0.5,0.1,1.2,0.6
									c0.7,0.5,1.6,1.3,2.3,2.4C413,324.9,413.4,327,413.3,327z"/>
							</g>
						</g>
					</g>
				</g>
			</g>
		</g>
		<g>
			<g>
				<g>
					<g>
						<g>
							<g>
								<path class="st10" d="M413.2,417.4c0,0-0.1-0.8-0.5-2.1c-0.4-1.3-1-3.2-2.1-5.5c-2.2-4.4-6.1-10.1-11.2-15.7
									c-2.5-2.8-4.9-5.5-7-8.1c-2.1-2.6-3.7-5-5-7.2c-1.2-2.2-2-4-2.5-5.3c-0.2-0.7-0.4-1.2-0.5-1.5c-0.1-0.4-0.1-0.5-0.1-0.5
									c0,0,0.3,0.7,0.8,2c0.5,1.3,1.4,3.1,2.6,5.2c1.3,2.1,3,4.5,5,7.1c2.1,2.5,4.5,5.2,7,8.1c5,5.7,9,11.4,11.1,15.9
									c1.1,2.3,1.7,4.2,2,5.6c0.1,0.7,0.2,1.2,0.3,1.6C413.2,417.2,413.2,417.3,413.2,417.4z"/>
							</g>
						</g>
					</g>
				</g>
			</g>
		</g>
		<g>
			<g>
				<g>
					<g>
						<g>
							<g>
								<path class="st10" d="M438.1,389.2c0,0-0.5,0.3-1.3,0.7c-0.8,0.5-2,1.2-3.4,2.2c-1.4,1-2.9,2.4-4.4,4.1
									c-1.6,1.6-3.2,3.6-4.8,5.6c-3.3,4.1-6.3,7.8-8.2,10.7c-0.9,1.4-1.6,2.7-2.1,3.5c-0.4,0.9-0.7,1.3-0.7,1.3c0,0,0-0.1,0.1-0.4
									c0.1-0.2,0.2-0.6,0.4-1c0.4-0.9,1-2.1,1.9-3.6c1.8-3,4.8-6.7,8.1-10.8c1.6-2.1,3.3-4,4.9-5.6c1.6-1.6,3.2-3,4.6-4
									c1.4-1,2.6-1.7,3.5-2.1c0.4-0.2,0.8-0.4,1-0.5C438,389.3,438.1,389.2,438.1,389.2z"/>
							</g>
						</g>
					</g>
				</g>
			</g>
		</g>
		<g>
			<g>
				<g>
					<g>
						<g>
							<g>
								<path class="st10" d="M438.6,398.4c0,0.1-1.1,0.2-2.8,0.4c-1.7,0.2-4.1,0.5-6.5,1.3c-2.5,0.8-4.5,2-5.9,3.1
									c-1.3,1-2,1.9-2,1.9c0,0,0.1-0.3,0.4-0.6c0.3-0.4,0.8-0.9,1.4-1.5c1.3-1.1,3.4-2.4,5.9-3.3c2.5-0.8,4.9-1,6.6-1.2
									C437.5,398.3,438.6,398.3,438.6,398.4z"/>
							</g>
						</g>
					</g>
				</g>
			</g>
		</g>
		<g>
			<g>
				<g>
					<g>
						<g>
							<g>
								<path class="st10" d="M422.2,404c-0.1-0.1,1.1-2,2.1-4.5c0.9-2.6,1.1-4.8,1.3-4.8c0.1,0,0.1,0.6,0,1.5
									c-0.1,0.9-0.3,2.2-0.8,3.5c-0.5,1.3-1.1,2.4-1.6,3.2C422.6,403.6,422.2,404,422.2,404z"/>
							</g>
						</g>
					</g>
				</g>
			</g>
		</g>
		<g>
			<g>
				<g>
					<g>
						<g>
							<g>
								<path class="st10" d="M446.1,364.8c0,0-0.1,0.1-0.4,0.2c-0.3,0.2-0.8,0.4-1.3,0.6c-0.6,0.2-1.3,0.6-2,1
									c-0.8,0.4-1.7,0.8-2.6,1.4c-0.5,0.3-1,0.6-1.5,0.9c-0.5,0.3-1,0.7-1.6,1c-1.1,0.7-2.2,1.5-3.4,2.3c-2.3,1.8-4.8,3.8-7.1,6.2
									c-2.3,2.4-4.3,4.9-6,7.3c-0.8,1.2-1.6,2.4-2.2,3.5c-0.3,0.6-0.7,1.1-0.9,1.6c-0.3,0.5-0.5,1-0.8,1.5c-0.5,1-0.9,1.9-1.3,2.7
									c-0.4,0.8-0.7,1.5-0.9,2.1c-0.2,0.5-0.4,1-0.5,1.3c-0.1,0.3-0.2,0.5-0.2,0.4c0,0,0-0.2,0.1-0.5c0.1-0.4,0.3-0.8,0.5-1.3
									c0.2-0.6,0.5-1.3,0.8-2.1c0.4-0.8,0.7-1.7,1.2-2.7c0.2-0.5,0.5-1,0.8-1.6c0.3-0.5,0.6-1.1,0.9-1.6c0.6-1.1,1.4-2.3,2.2-3.5
									c1.7-2.4,3.7-4.9,6-7.4c2.4-2.4,4.8-4.5,7.2-6.3c1.2-0.8,2.3-1.7,3.5-2.3c0.6-0.3,1.1-0.7,1.6-1c0.5-0.3,1-0.6,1.5-0.8
									c1-0.6,1.9-0.9,2.7-1.3c0.8-0.4,1.5-0.7,2.1-0.9c0.5-0.2,1-0.4,1.3-0.5C446,364.8,446.1,364.8,446.1,364.8z"/>
							</g>
						</g>
					</g>
				</g>
			</g>
		</g>
		<g>
			<g>
				<g>
					<g>
						<g>
							<g>
								<path class="st10" d="M426.4,378c0,0,0.2-0.8,1.1-1.6c0.9-0.8,2.5-1.6,4.4-1.7c1.9,0,3.5,0.5,4.6,0.9
									c1.1,0.4,1.8,0.8,1.7,0.8c0,0.1-0.7-0.2-1.8-0.5c-1.1-0.3-2.7-0.8-4.5-0.7c-1.8,0.1-3.3,0.7-4.2,1.5
									C426.8,377.3,426.5,378,426.4,378z"/>
							</g>
						</g>
					</g>
				</g>
			</g>
		</g>
		<g>
			<g>
				<g>
					<g>
						<g>
							<g>
								<path class="st10" d="M423.5,381c-0.1-0.1,1-1.7,1.2-4c0.3-2.3-0.4-4.2-0.3-4.2c0,0,0.3,0.4,0.5,1.2
									c0.2,0.8,0.4,1.9,0.2,3.1c-0.1,1.2-0.5,2.3-0.9,3C423.9,380.7,423.6,381,423.5,381z"/>
							</g>
						</g>
					</g>
				</g>
			</g>
		</g>
	</g>
	<g>
		<g>
			<g>
				<g>
					<g>
						<path class="st9" d="M391.4,421.9c0.7,12,4.3,24.3,9.9,36.7h24.3c5.3-12.3,8.7-24.5,9.3-36.7H391.4z"/>
					</g>
				</g>
			</g>
		</g>
	</g>
	<g>
		<g>
			<g>
				<g>
					<g>
						<g>
							<path class="st15" d="M431,441.4c0,0.1-8,0.2-17.8,0.2c-9.9,0-17.8-0.1-17.8-0.2c0-0.1,8-0.2,17.8-0.2
								C423,441.1,431,441.2,431,441.4z"/>
						</g>
					</g>
				</g>
			</g>
		</g>
	</g>
	<g>
		<g>
			<g>
				<g>
					<g>
						<g>
							<path class="st15" d="M430.4,445.7c0,0.1-7.5,0.2-16.7,0.2c-9.2,0-16.7-0.1-16.7-0.2c0-0.1,7.5-0.2,16.7-0.2
								C422.9,445.5,430.4,445.6,430.4,445.7z"/>
						</g>
					</g>
				</g>
			</g>
		</g>
	</g>
</g>
</svg>
